<?xml version="1.0" encoding="UTF-8"?><svg id="Layer_2" xmlns="http://www.w3.org/2000/svg" viewBox="0 0 683.86 1440.4"><defs><style>.cls-1{fill:rgba(0,150,136,.67);}.cls-2{fill:#adfef8;}.cls-3{fill:#002320;}.cls-4{fill:rgba(0,150,136,.99);}.cls-5{fill:#009688;}</style></defs><g id="Layer_1-2"><path class="cls-5" d="M153.16,248.83h0l-10.91-7.73,1.19-.2C32.31,393.54-2.98,697.98,2.21,840.55h0c4.63,127.35,13.13,297.21,216.49,537.28l-1.46.87c-64.56-166.25-60.75-293.88-44.53-355.82h0c6.61-25.24,45.08-145.7,97.05-181.68l.48,1.56c-63.22-.62-115.26-37.59-151.94-105.33h0c-36.76-67.87-50.74-240.15,35.16-491.28.15-.45.64-.69,1.09-.53s.69.64.53,1.09h0c-85.85,250.99-71.68,422.68-35.27,489.91h0c36.48,67.36,88.02,103.82,150.45,104.43.37,0,.7.25.81.61s-.02.74-.33.96h0c-51.35,35.55-89.71,155.3-96.37,180.7h0c-16.11,61.52-19.98,188.78,44.47,354.76.15.39,0,.83-.36,1.05s-.82.14-1.09-.18h0C13.69,1138.47,5.13,968.18.49,840.61H.49c-5.19-142.66,30.08-447.6,141.56-600.72.28-.38.81-.47,1.19-.2h0l10.91,7.73c.39.27.48.81.2,1.2s-.81.48-1.2.2Z"/><path class="cls-4" d="M202.08,146.29h0c98.95,134.56,132.55,263.04,142.57,322.53h0c14.01,83.18,6.32,154.24-9.92,304.63h0s-2.52,23.41-2.52,23.41l-1.3-1.55,53.28,3.52-1.48,1.16c35.52-204.7,16.83-282.57-.99-356.91h0c-2.99-12.48-5.96-24.87-8.65-37.76h0c-27.71-132.77-112.6-235.68-146.08-274.85l1.83.27-27.1,17.56c-.65.42-1.52.24-1.94-.41s-.24-1.52.41-1.94h0l27.1-17.56c.59-.38,1.37-.27,1.83.27h0c33.52,39.21,118.83,142.58,146.7,276.1h0c2.68,12.85,5.64,25.18,8.63,37.68h0c17.89,74.66,36.62,152.91,1.03,358.04-.12.71-.76,1.21-1.48,1.16h0l-53.28-3.52c-.38-.03-.74-.21-.98-.5s-.36-.67-.32-1.05h0l2.52-23.41h0c16.25-150.5,23.87-221.14,9.94-303.86h0c-9.96-59.17-43.43-187.21-142.06-321.33-.46-.62-.33-1.5.3-1.96s1.5-.33,1.96.3Z"/><path class="cls-1" d="M256.77,77.66h0c116.25,137.71,177.28,300.56,177.29,300.59h0c29.33,78.27,44.63,232.39-.88,439.35l-.48-1.08c15.32,8.89,33.73,38.85,47.7,61.56h0c8.92,14.49,15.89,25.75,19.3,27.73h0c.67.39.68.16.71.11h0c30.06-43,69.25-270.12-14.55-506.5h0c-23.79-67.09-100.02-257.5-205.06-340.41h1.24s-25.42,20.1-25.42,20.1c-.43.34-1.06.27-1.41-.16s-.27-1.06.16-1.41h0l25.42-20.1c.36-.29.88-.29,1.24,0h0c105.56,83.32,181.95,274.3,205.71,341.32h0c83.91,236.68,44.9,464.57,14.31,508.32h0c-.9,1.28-2.26,1.1-3.35.47h0c-3.98-2.31-11.32-14.3-20-28.41h0c-14.14-22.96-32.24-52.3-47-60.88-.38-.22-.57-.66-.48-1.08h0c45.46-206.72,30.12-360.42.96-438.22h0s-60.92-162.56-176.95-300c-.36-.42-.3-1.05.12-1.41s1.05-.3,1.41.12Z"/><path class="cls-5" d="M459.95,1304.51h0c0,73.08-32.53,135.89-75.96,135.89h0c-43.43,0-75.96-62.81-75.96-135.89h0c0-73.08,32.53-135.89,75.96-135.89h0c43.43,0,75.96,62.81,75.96,135.89h0M453.43,1304.51h0c0-73.42-32.56-129.37-69.44-129.37h0c-36.87,0-69.44,55.95-69.44,129.37h0c0,73.42,32.56,129.37,69.44,129.37h0c36.87,0,69.44-55.95,69.44-129.37Z"/><path class="cls-5" d="M142.93,240.95c-.21,0-.4.1-.53.27C31.54,394.26-3.62,698.18,1.56,840.57c4.61,126.74,13.07,295.61,213.35,533.78.13.15.31.23.5.23.07,0,.15-.01.22-.04.26-.09.43-.34.43-.61h0c0-.08-.01-.16-.04-.23-62.61-163.82-58.7-289.47-42.67-350.65,6.53-24.92,43.96-142.06,94.58-179.72h-.02c.24-.1.41-.34.41-.61,0-.35-.28-.63-.63-.64-61.76-1.58-112.7-38.27-148.81-104.94-36.5-67.4-50.58-238.53,34.34-488.24h-.02c.05-.06.09-.14.11-.21.08-.27-.02-.55-.25-.71l-9.73-6.9c-.11-.08-.24-.12-.38-.12h-.02Z"/><path class="cls-5" d="M368.5,925.95h0c-38.23,0-74.24,18.21-93.19,49.77-68.15,113.48-36.95,250.23,5.45,407.05.08.29.34.48.63.48.03,0,.06,0,.09,0,.32-.04.56-.32.56-.64h0s0-.05,0-.05c-12.63-153.19,21.16-223.87,44.54-247.13,8.93-8.89,18.01-14.99,27.05-18.64,7.22-2.92,14.39-4.28,21.43-4.28,34.81,0,74.63,23.17,92.58,80.25,39.42,125.38,16.18,223.18,16.18,223.18h0c99.84-360.06-20.26-451.41-47.36-469.33l-.02-.02h0s0,0,0,0c-1.53-1.01-3.07-1.98-4.63-2.92h0s-.02-.01-.03-.02c-20.1-12.07-42.03-17.69-63.27-17.69h0s0,0,0,0Z"/><path class="cls-5" d="M384,1174.49c-37.52,0-70.09,56.63-70.09,130.02s32.56,130.02,70.09,130.02,70.09-56.63,70.09-130.02-32.56-130.02-70.09-130.02Z"/><path class="cls-5" d="M498.63,1437.58h0s0,0,0,0h0s0,0,0,0h0ZM335.41.04h0c-.24,0-.45.13-.57.33l-13.71,24.51c-.12.21-.11.46.02.66.06.1.15.18.25.23h-.02c118.07,118.65,242.01,342.73,258.64,521.38,22.68,243.59-8.15,338.63-27.32,397.72h0c-7.05,21.73-25.3,57.02-25.3,57.02,14.71,44.61,18.53,68.4,18.53,68.4h0s0,.02,0,.02c4.72,29.44,10,62.42,8.32,108.25-2.15,58.57-15.67,138.11-56.23,258.15-.07.2-.03.42.09.59h0c.12.17.31.27.53.27.33,0,.6-.24.59-.34h-.02c212.35-360.47,205.58-802.71,130.58-994.87C581.45,318.54,482.08,126.76,335.86.2c-.12-.1-.27-.16-.42-.16h-.02s0,0,0,0Z"/><path class="cls-5" d="M281.42,58.85c-.15,0-.29.05-.4.14l-23.99,18.97c-.22.18-.3.47-.2.74.05.13.14.25.26.32h-.02c115.62,137.36,176.34,299.31,176.4,299.47,0,0,0,0,0,0,29.24,78.03,44.55,231.75-.76,438.29-.04.19,0,.39.13.55.08.1.19.18.32.21h-.02c14.94,9.28,32.8,38.25,46.57,60.62h0c.06.1.11.17.16.27h0c8.84,14.37,15.94,25.86,19.53,27.95h0c.23.14.44.23.63.28.08.02.16.03.25.03.4,0,.6-.23.69-.38h0c30.23-43.24,69.36-270.61-14.47-507.09-23.73-66.93-99.74-256.86-204.61-340.18h0c-.11-.1-.27-.17-.43-.17h-.02Z"/><path class="cls-5" d="M227.78,130.76c-.13,0-.25.04-.35.1l-24.82,16.09c-.25.16-.36.47-.26.75.04.13.13.25.23.32h-.02c98.11,133.97,131.49,261.68,141.46,320.9h0c13.98,83.03,6.33,153.97-9.9,304.23h0s-.02.22-.02.22h0l-2.37,21.95c-.02.18.04.37.16.5.12.13.28.21.46.22h-.02s0,0,0,0h.02l50.54,3.34s.03,0,.04,0c.3,0,.56-.2.63-.49h0s0-.05,0-.05c35.23-203.8,16.6-281.6-1.19-355.84l-.02-.08v-.02s-.01-.02-.01-.02h0c-2.99-12.48-5.95-24.83-8.64-37.69-27.53-131.89-111.39-234.33-145.42-274.2-.12-.14-.3-.23-.49-.23h-.02Z"/><path class="cls-3" d="M138.38,284.19s-.03-.1-.06-.16c-.03-.05-.06-.09-.09-.12-.03-.03-.07-.04-5.47,15.87s-15.85,52.24-24.97,93.47c-9.11,41.22-16.13,85.41-20,130.11-3.88,44.7-3.9,87.9.38,127.05,4.28,39.15,13.38,72.26,20.13,86.35,6.75,14.08,7.15,14.68,7.54,15.19.38.51.75.93,1.1,1.25.35.32.69.55.93.68s.24.13.08.04c0,0-.32-.17-.67-.43s-.7-.62-1.07-1.06c-.37-.45-.76-.99-1.15-1.63s-12.02-28.64-18.8-63.82c-6.78-35.17-8.81-75.82-7.19-119.47,1.62-43.65,5.96-88.43,12.75-131.86s15.7-83.48,26-117.63,10.33-34.15,10.37-34.13c.04.02.07.05.1.09s.05.1.07.13c.02.07.01.03.02.07Z"/><path class="cls-3" d="M268.61,842.89l.04.03s.05.04.08.06l.04.03s.05.04.07.06c.07.06.13.13.18.2-.04-.06-.08-.12-.11-.18,0,0-.02-.02-.05-.05-.04-.03-.08-.07-.14-.1-.05-.03-.07-.04-.09-.05h-.02M267.84,842.67h-.2c-25.01,22.24-48.38,58.17-70.13,107.8-7.28,17.21-14.55,37.51-21.8,60.92l-7.4,29.44c-3.28,18.02-5.49,32.2-6.61,42.53-1.01,23.23-1.64,34.77-1.89,34.61-.16,3.34,0,9.7.48,19.08-.5,8.45-.64,13.99-.42,16.62,1.01,21.1,2.52,37.54,4.53,49.33,8.52,42.25,15.91,72.29,22.16,90.13l9.41,20.48c5.12,16.27,9.46,28.14,13.02,35.6,3.41,7.8,7.99,15.68,13.74,23.66-4.77-9.04-8.34-16.91-10.71-23.58-2.69-6.87-6.51-19.34-11.44-37.41-5.95-13.82-8.78-20.7-8.5-20.63-4.89-17.27-7.75-28.09-8.58-32.45l-7.51-39.58c-3-15.21-4.58-22.09-4.73-20.64-.64-4.87-1.58-17.53-2.82-37.96-.48-8.79-.64-17.07-.49-24.86l-.67-12.39c-.03-3.03.01-5.27.12-6.73.62-5.24,1-9.91,1.15-13.99-.15-14.65,0-23.63.43-26.94.9-9.95,2.28-20.77,4.15-32.45,2.91-11.21,5.37-22.43,7.37-33.66,6.32-20.48,13.67-40.76,22.05-60.85l15.7-35.43c4.06-7.7,9.39-16.91,15.99-27.62,5.31-8.68,10.79-16.79,16.47-24.34,5.26-6.56,9.7-11.9,13.34-16.02,1.84-2.04,3.34-2.87,4.51-2.48l-.72-.19M223.12,1373.31h0s0,0,0,0h0s0,0,0,0h0s0,0,0,0h0s0,0,0,0h0s0,0,0,0h0s0,0,0,0c0,0,0,0,0,0s0,0,0,0h-.03"/><path class="cls-3" d="M232.88,133.28l-2.07-3.08c143.81,167.06,160.43,337.65,163.05,375.82,13.24,192.39-9.92,290.59-9.92,290.59l-37.85-1.45,38.77,4.03c69.59-235.75-14.41-537.66-154.06-669l2.07,3.08Z"/><path class="cls-3" d="M282.8,58.8c69.01,42.26,153.02,220.92,174,268.27,69.48,156.8,75.26,265.01,74.91,364.16-.37,105.43-31.5,211.2-31.5,211.2-35.49-55.1-55.41-83.01-68.64-89.21,1.45-6.28,24.42,25.74,68.25,96.65,57.54-80.45,51.18-383.2-13.22-529.54-70.86-161.02-85.8-210.42-201.51-322.54l-2.3,1.01Z"/><path class="cls-3" d="M316.4,1143.13c19.99-17.97,42-29.88,64.9-29.42,22.9.46,51.84,16.72,62.78,36.64,33,60.08,52.56,137.26,44.65,240.81,8.26-103.52-2.03-180.66-40.21-242.05-12.79-20.56-42.96-40.2-71.35-38.32-17.79,1.18-41.17,9.63-61.24,33.9l.47-1.55Z"/><path class="cls-3" d="M366.97,927.07c133.98-5.35,198.42,202.32,113.2,500.78,91-296.75,31.49-508.43-112.83-500.94l-.37.16Z"/><path class="cls-3" d="M402.26,1437.17h0c22.22-8,56.9-46.6,58.62-131,1.2-58.77-13.77-112.16-59.72-134.26,45.78,22.44,58.82,95.05,53.42,164.17-4.51,57.79-27.66,83.54-52.26,101l-.07.09Z"/><path class="cls-2" d="M145.09,246.93c-.09-.02-.27-.05-.45-.08-.18-.03-.36-.05-.53-.06-.18-.01-.35-.02-13,20.58-12.64,20.6-36.06,69.45-55.43,127.42-19.38,57.97-34.17,122.04-44.79,188.28s-15.78,131.77-15.7,192.72c.08,60.94,6.09,114.18,11.26,137.38,5.16,23.2,5.29,23.71,5.41,24.18.12.47.23.9.33,1.3.1.4.19.76.26,1.01q.07.25.02.08s-.09-.34-.18-.71-.2-.78-.31-1.23-.23-.93-.36-1.45c-.12-.52-6.64-46.87-8.69-102.68-2.06-55.81.28-118.37,7.02-184.06,6.74-65.69,17.48-131.61,32.8-193.88s34.35-118.1,57.61-163.52c23.26-45.42,23.42-45.41,23.6-45.41.18,0,.35.02.53.04.18.02.36.05.45.06.18.03.09.01.18.03Z"/><path class="cls-2" d="M233.45,178.58c111.4,164.15,148.15,354.44,110.26,570.88,46.34-218.32,9.61-408.57-110.18-570.76"/><path class="cls-2" d="M271.31,74.09l3.73-2.61c191.29,225.4,247.97,465.83,170.04,721.28,87.82-257.44,31.15-497.87-170.04-721.28"/><path class="cls-2" d="M359.3,51.54l.2.29c117.82,117.22,209.33,310.09,244.49,544.69-28.51-231.47-120.03-424.34-244.49-544.69l-.2-.29Z"/><path class="cls-2" d="M580.88,915.75c-2.43,13.35-12.36,37.6-35.5,83.17,10.75,49.97,32.11,116.9,13.7,225.27,24.01-108.79,1.91-177.19-10.96-225.32,21.55-44.92,31.17-70.24,32.9-83.24l-.14.12Z"/><path class="cls-2" d="M377.31,931.03c-81.92,8.77-136.55,64.54-131.09,214.58,2.78-143.86,53.45-202.81,129.92-213.33l1.16-1.25Z"/><path class="cls-2" d="M36.48,983.13c.03,10.04,2.81,31.69,9.31,55.05,6.49,23.36,15.81,47.84,26.95,72.67,11.13,24.83,23.26,49.44,35.4,73.06,12.14,23.62,23.49,45.68,28.94,56.53,5.45,10.85,5.95,11.91,6.38,12.87s.79,1.81,1.09,2.57.53,1.4.68,1.83q.15.43.05.14s-.2-.58-.46-1.26c-.26-.68-.57-1.47-.94-2.37-.37-.9-.78-1.9-1.26-3.02-.48-1.11-10.36-21.94-21.86-44.66s-23.69-46.8-35.56-71.5-22.62-49.44-31.21-73.49c-8.6-24.05-14.25-46.84-15.86-57.62-1.65-20.82-1.61-10.78-1.65-20.82Z"/><path class="cls-2" d="M125.5,777.35c2.29,4.15,8.48,12.76,16.74,21.41,8.26,8.64,18.06,16.98,28.83,24.45,10.78,7.47,22.04,13.69,33.14,18.21,11.1,4.53,21.57,6.88,26.89,7.2,5.32.32,6.29.27,7.24.18.95-.09,1.88-.21,2.78-.36.91-.15,1.79-.34,2.65-.54s1.71-.44,2.17-.56c.47-.12.54-.11.57-.1s0,.02-.06.02c-.07,0-.19,0-.3,0q-.11,0-.04,0s.15,0,.25,0c.1,0,.15,0,.16-.02,0,0-.04-.02-.13-.03-.09-.01-.92.25-1.77.47-.85.22-1.72.4-2.62.54-.9.13-1.81.23-2.75.29-.94.06-1.89.1-2.85.09s-10.51-1.06-21.07-4.34c-10.56-3.27-21.73-8.38-32.82-14.98s-21.73-14.19-31.18-22.46c-9.45-8.27-17.2-16.85-20.38-21.09-5.46-8.39-3.17-4.25-5.46-8.39Z"/><path class="cls-2" d="M380.91,1182.49c-38.57,3.84-59.77,41.49-63.59,112.94.29,75.34,20.61,117.76,60.97,127.26-38.09-11.65-57.3-53.99-57.61-127,1.81-70.5,22.97-108.13,63.48-112.91"/><path class="cls-3" d="M335.18,0c48.61,43.68,91.85,93.02,131.79,144.68,59.73,77.86,110.4,162.92,148.21,253.56,18.73,45.25,34.32,92.5,45.82,140.12,10.5,43.84,17.5,88.71,20.84,133.68,2.72,36.36,2.54,74.23.49,110.69-3.57,77.41-13.13,155.17-27.93,231.21-23.28,116-57.74,230.34-108.07,337.56-14.09,29.44-28.97,58.58-46.69,86.03,0,0-.83-.56-.83-.56,8.7-13.75,16.49-28.1,23.99-42.53,94.33-185.42,134.87-393.7,146.75-600.12.52-13.87,1.7-34.83,1.95-48.67.51-19.96.26-40.76-.85-60.65-2.28-44.37-8.47-88.81-17.93-132.2-31.92-147.02-101.45-284-190.25-404.72-28.98-39.28-60.13-77.03-93.53-112.65-11.15-11.86-22.52-23.56-34.42-34.66,0,0,.66-.75.66-.75h0Z"/></g></svg>