<?xml version="1.0" encoding="UTF-8"?><svg id="Layer_2" xmlns="http://www.w3.org/2000/svg" viewBox="0 0 2965.44 1193.6"><defs><style>.cls-1{fill:#0d1b38;}.cls-2{fill:#10305b;}.cls-3{fill:#ffc107;}.cls-4{fill:#244186;}.cls-5{fill:#f34336;}.cls-6{fill:#d9dad9;}</style></defs><g id="Layer_1-2"><path class="cls-3" d="M566.87,0h1817.8c.6,0,1.1.5,1.1,1.1h0v1191.4c0,.6-.5,1.1-1.1,1.1H566.87c-.3,0-.5-.1-.7-.3s-.3-.5-.3-.7h0V1.2c0-.3.1-.5.3-.7s.5-.3.7-.3h0M566.87,2.1l1.1-1.1v1191.4l-1.1-1.1h1817.8l-1.1,1.1V1l1.1,1.1H566.87Z"/><path class="cls-6" d="M1487.27,221.89s0-88.54,0-142.28c0-22.13,17.96-40.05,40.09-40,83.95.2,270.51.2,270.51.2v87.28s-55.6,0-55.6,0c-10.87,0-20.73,4.34-27.94,11.37-7.44,7.26-11.98,17.4-12.06,28.62-.4,55-.5,55.3-.5,55.3v745.31s.1.3.5,55.3c.08,11.22,4.62,21.36,12.06,28.62,7.21,7.04,17.07,11.37,27.94,11.37h55.61v87.7s-270.52-.22-270.52-.22c-22.13.05-40.09-17.87-40.09-40,0-53.74,0-142.28,0-142.28V222.5"/><path class="cls-6" d="M2149.47,1063.7h-118c-.3,0-.5.2-.5.5v86c0,.3.2.5.5.5h118c.1,0,.2,0,.3-.1s.1-.2.1-.3h0v-86c0-.1,0-.2-.1-.3s-.2-.1-.3-.1v-.2Z"/><path class="cls-2" d="M655.47,1063.2c-.2,0-.5,0-.7.3s-.3.4-.3.7v86c0,.5.4.9.9.9s0,0,0,0h181.9c.2,0,.5,0,.7-.3s.3-.4.3-.7h0v-86h0c0-.5-.4-.9-.9-.9h-182,.1Z"/><path class="cls-5" d="M847.47,1063.2c-.2,0-.5,0-.7.3s-.3.4-.3.7v86c0,.5.4.9.9.9h150c.2,0,.5,0,.7-.3s.3-.4.3-.7h0v-86h0c0-.5-.4-.9-.9-.9h-150Z"/><path class="cls-1" d="M2309.47,1063.7h-150c-.3,0-.5.2-.5.5v86c0,.3.2.5.5.5h150c.1,0,.2,0,.3-.1s.1-.2.1-.3h0v-86c0-.1,0-.2-.1-.3s-.2-.1-.3-.1v-.2Z"/><rect class="cls-2" x="1807.42" y="1063.7" width="215.05" height="87.8"/><rect class="cls-2" x="2319.47" y="1063.7" width="645.97" height="87.8"/><path class="cls-6" d="M1295.17,222.4l.3,745.1v.2c-.1,0-.2,0-.3.1s-.1.2-.1.3v59c0,35.4-34.4,36.5-36.5,36.5h-251c-.3,0-.5.2-.5.5v86c0,.1,0,.2.1.3s.2.1.3.1h347c59.2,0,59.5-58.8,59.5-59.5v-123h0c0-.3-.2-.5-.5-.5l.5-745.5h0v-123c0-.6-.2-59.5-59.5-59.5h-347l.1.2c-.1,0-.2,0-.3.1s-.1.2-.1.3v86c0,.3.2.5.5.5h250.9c1.7,0,36.5,1,36.5,36.5v59h0c0,.1,0,.2.1.3Z"/><path class="cls-6" d="M655.57,39.7c-.3,0-.5.2-.5.5v86h0c0,.3.2.5.5.5s0,0,0,0h181.9c.1,0,.2,0,.3-.1s.1-.2.1-.3h0V40.3h0c0-.3-.2-.5-.5-.5h-182l.2-.1Z"/><path class="cls-4" d="M847.57,38.8c-.4,0-.7.1-1,.4s-.4.6-.4,1v86c0,.7.6,1.4,1.4,1.4h150c.4,0,.7-.1,1-.4s.4-.6.4-1h0V40.2c0-.7-.6-1.4-1.4-1.4h-150Z"/><path class="cls-4" d="M5.89,1062.75c-1.68,0-2.95.1-4.21.4s-1.68.6-1.68,1v86c0,.7,2.53,1.4,5.89,1.4h631.48c1.68,0,2.95-.1,4.21-.4s1.68-.6,1.68-1h0v-86c0-.7-2.53-1.4-5.89-1.4H5.89Z"/><path class="cls-2" d="M5.8,39.2c-1.16,0-2.9,0-4.06.3s-1.74.4-1.74.7v86c0,.5,2.32.9,5.22.9h635.44c1.16,0,2.9,0,4.06-.3s1.74-.4,1.74-.7h0V40.1h0c0-.5-2.32-.9-5.22-.9H5.8Z"/><rect class="cls-2" x="1806.9" y="39.1" width="215.05" height="87.8"/><rect class="cls-4" x="2030.97" y="39.1" width="119.1" height="87.8"/><rect class="cls-2" x="2158.57" y="39.1" width="151.9" height="87.8"/><rect class="cls-6" x="2318.97" y="39.1" width="646.47" height="87.8"/></g></svg>