<?xml version="1.0" encoding="UTF-8"?><svg id="Layer_2" xmlns="http://www.w3.org/2000/svg" viewBox="0 0 459.23 316.56"><g id="Layer_2-2"><path d="M161.79,128.82c-.18-.05-.89-.85-.75-.99l12.96-5.03-.07-1.62-20.08-25.37-2.3-3.94,41.73,3.02,1.69-.85L184.51,0l72.2,51.43,14.95-34.45,19.06,38.49L368.32,0l-9.49,87.88,37.46-4.99-23.46,36.65,86.4,38.98-80.19,35.69,22.74,30.47-43.45-2.99,9.98,94.86-71.68-51.45-15.22,34.98-18.75-38.97-78.15,55.44,9.92-87.09-1.2-.8-36.7,5,23.88-36.2-19.39-8.74c-.15-.16.65-.99.75-.99h55.94l.51.99-6.75,10.49,12.48-1.49-6.49,62.41,54.19-38.89,7.25,13.92c.95.71,4.52-9.81,4.95-10.78.2-.47-.29-.9.76-.68l51.22,36.92-6.99-66.91,14.71.98.77-1.21c-1-1.48-7.75-8.59-6.96-9.73l57.42-25.24-61.43-28c-.24-1.1,7.7-10.34,8-12.45.11-.81.03-.83-.73-.73-3.75.51-7.5,1.15-11.27,1.48l6.49-62.91-54.68,39.46-6.76-13.49c-.84-.17-1.01.22-1.42.82-1.5,2.18-2.24,6.94-3.67,9.31-.29.47-.42,1.01-1.12.85l-50.71-36.94,6.95,66.09c-.35,1.24-6.27.9-7.73.83-2.29-.11-5.17-.62-7.46-1.02l-.51.99,4.01,5-.5,1h-50.45ZM19.86,139.11v38.64h218.41v-38.64H19.86ZM242.27,139.11v38.64h13.69v-38.64h-13.69ZM0,139.11v38.64h15.86v-38.64H0ZM280.34,140.9h0c-6.7-1.08-13.53-1.65-20.37-1.74v38.56c6.85-.1,13.67-.66,20.37-1.74h0c17.41-5.2,17.41-29.86,0-35.07Z"/></g></svg>