<?xml version="1.0" encoding="utf-8"?>
<svg xmlns="http://www.w3.org/2000/svg" xmlns:xlink="http://www.w3.org/1999/xlink" version= "1.1" viewBox="450 80 850 1560">
<g id="layer1" opacity="0.0">
<g style="fill:rgb(0,0,0); fill-opacity:1.0; stroke-linejoin: miter">
<path d="M315.182,0.0L1400.0,8.664681E-4L2484.8179,0.0017329362L2484.8179,1751.9983Q1400.0,1751.9993,315.182,1751.9999Q315.182,875.99994,315.182,0.0"/>
</g>
<g style="fill:rgb(242,208,102); fill-opacity:1.0; stroke-linejoin: miter">
<path d="M900.6657,93.01895L900.6657,93.01895C787.17,265.62076,673.7327,438.13925,602.0948,642.4131L602.0948,642.4131C530.4533,846.6963,500.60614,1082.7631,470.74957,1318.9276L469.50897,1318.3593C575.9687,1200.2673,682.45514,1082.145,767.0859,1000.54553L767.0859,1000.54553C851.7348,918.92834,914.5179,873.84863,977.2779,828.78455C977.5511,828.5884,977.9244,828.60925,978.174,828.8346L978.174,828.8346C1028.5652,874.31213,1078.9844,919.8141,1129.5237,975.28345L1129.5237,975.28345C1180.0562,1030.7452,1230.7117,1096.1765,1281.3364,1161.5677L1280.0686,1162.1399C1242.8601,967.6122,1205.6646,773.1582,1142.2349,594.9868L1142.2349,594.9868C1078.8079,416.82205,989.1418,254.9249,899.4428,92.9725L900.6657,93.01895 M899.47076,92.233185C899.60834,92.02402,899.84515,91.90207,900.0953,91.91153C900.3455,91.92099,900.5723,92.06064,900.69366,92.27957L900.69366,92.27957C990.384,254.21603,1080.1096,416.2142,1143.5823,594.5071L1143.5823,594.5071C1207.0554,772.80066,1244.2688,967.3651,1281.4731,1161.8711C1281.5354,1162.196,1281.3665,1162.5211,1281.065,1162.6572C1280.7634,1162.7933,1280.408,1162.7047,1280.2056,1162.4431L1280.2056,1162.4431C1229.5698,1097.0378,1178.9556,1031.6609,1128.4663,976.2466L1128.4663,976.2466C1077.9814,920.8369,1027.6111,875.37744,977.2159,829.89624L978.112,829.94617C915.3653,875.0006,852.65045,920.0322,768.07855,1001.57495L768.07855,1001.57495C683.49615,1083.1278,577.04,1201.2146,470.57123,1319.3167C470.362,1319.5486,470.0263,1319.6182,469.74225,1319.488C469.45807,1319.3579,469.29144,1319.0583,469.33075,1318.7483L469.33075,1318.7483C499.18268,1082.6202,529.0439,846.39343,600.7452,641.9398L600.7452,641.9398C672.45013,437.475,785.98846,264.81442,899.47076,92.233185 Z"/>
</g>
<g style="fill:rgb(242,208,102); fill-opacity:1.0; stroke-linejoin: miter">
<path d="M899.868,229.94357L899.868,229.94339L899.4007,230.62296L899.4007,230.62308C829.123,332.77957,758.93414,434.95706,706.91156,576.17993L706.91156,576.17993C654.764,717.74194,620.8615,898.5537,586.94525,1079.4507L585.7244,1078.826C640.9357,1020.80884,696.1839,962.7522,764.9135,906.12366L764.9135,906.12366C833.63995,849.4977,915.8427,794.30176,998.00775,739.13C998.2674,738.9557,998.6103,738.9702,998.8542,739.16614L998.8542,739.16614L1076.0066,801.13965L1076.0103,801.1427L1150.7898,862.0115L1149.6448,862.74084C1119.4983,743.15564,1089.3655,623.6272,1047.5427,518.1748L1047.5427,518.1748C1005.72284,412.7291,952.2072,321.33865,898.6618,229.89957L899.868,229.94357 M898.6895,229.13297C898.8282,228.93143,899.06024,228.81479,899.30475,228.8237C899.54926,228.83255,899.77216,228.96585,899.8957,229.17691L899.8957,229.17691C953.4351,320.60532,1007.0058,412.08493,1048.8721,517.6476L1048.8721,517.6476C1090.7354,623.20264,1120.8906,742.8275,1151.0317,862.39124C1151.1069,862.69006,1150.9824,863.00354,1150.7224,863.1692C1150.4626,863.3347,1150.1257,863.3152,1149.8867,863.1206L1149.8867,863.1206L1075.1074,802.25183L1075.1111,802.25476L997.9587,740.2811L998.805,740.31726C916.62335,795.5001,834.4871,850.65295,765.8232,907.2274L765.8232,907.2274C697.1678,963.7947,641.97833,1021.7876,586.76044,1079.8118C586.54205,1080.0413,586.19855,1080.0997,585.91656,1079.9554C585.6346,1079.811,585.48126,1079.4984,585.5396,1079.1871L585.5396,1079.1871C619.44916,898.32666,653.37164,717.38477,705.56976,575.68555L705.56976,575.68555C757.6608,434.27664,827.94745,331.96506,898.2222,229.81247L898.2222,229.81265L898.6895,229.13309 Z"/>
</g>
<g style="fill:rgb(242,208,102); fill-opacity:1.0; stroke-linejoin: miter">
<path d="M935.13116,240.68582L935.13116,240.68582L943.4084,896.48645L943.4085,896.4934L945.5865,1631.8732C945.5872,1632.1366,945.44305,1632.3793,945.21124,1632.5045C944.97943,1632.6298,944.6976,1632.6173,944.4777,1632.4723L944.4777,1632.4723L581.1451,1392.8644C580.95184,1392.7368,580.8321,1392.5236,580.82416,1392.2921L580.82416,1392.2921L567.7547,1013.27454L567.7679,1013.1112C602.3857,838.0,637.01996,662.7964,690.3652,524.91675L690.3652,524.91675C743.72064,387.01102,815.7874,286.454,887.80084,185.9667C887.92914,185.78763,888.1329,185.6777,888.3531,185.6688C888.5732,185.65982,888.7852,185.75284,888.9277,185.92093L888.9277,185.92093L934.96173,240.23251C935.0693,240.35928,935.1291,240.51956,935.13116,240.68582L935.13116,240.68582 M933.70123,240.70383L933.87067,241.15714L887.8366,186.84555L888.96344,186.79977C816.9451,287.2938,744.98175,387.71518,691.69904,525.43286L691.69904,525.43286C638.40814,663.17175,603.7961,838.23987,569.17084,1013.3884L569.184,1013.2252L582.2535,1392.2428L581.93243,1391.6705L945.26495,1631.2784L944.1562,1631.8776L941.9782,896.49756L941.97845,896.5045L933.70123,240.70383 Z"/>
</g>
<g style="fill:rgb(242,208,102); fill-opacity:1.0; stroke-linejoin: miter">
<path d="M1003.9639,362.2557L1003.9639,362.2557C1000.0915,556.6658,996.2182,751.14417,994.9598,918.719L994.9598,918.719C993.7015,1086.302,995.0572,1227.1029,996.4128,1367.8643L995.3133,1367.2683L1224.321,1221.1791L1223.9946,1221.8583L1184.2041,851.84607L1184.2229,851.94934C1153.2534,732.6317,1122.293,613.3544,1092.0332,531.8136L1092.0332,531.8136C1061.7854,450.306,1032.2341,406.49362,1002.65607,362.6412L1003.9639,362.2557 M1002.534,362.22714C1002.54034,361.91544,1002.74786,361.64377,1003.0468,361.55557C1003.3459,361.46738,1003.66754,361.5831,1003.84186,361.84158L1003.84186,361.84158C1033.4407,405.72464,1063.0667,449.64822,1093.3738,531.31616L1093.3738,531.31616C1123.665,612.9413,1154.6453,732.3013,1185.6072,851.5901L1185.626,851.69324L1225.4165,1221.7054C1225.4456,1221.9756,1225.3193,1222.2388,1225.0901,1222.3848L1225.0901,1222.3848L996.08246,1368.4739C995.86346,1368.6136,995.58563,1368.6237,995.3571,1368.4998C995.1286,1368.3757,994.9853,1368.1377,994.983,1367.8779L994.983,1367.8779C993.62714,1227.0942,992.2712,1086.328,993.52985,918.7084L993.52985,918.7084C994.7884,751.1127,998.66144,556.645,1002.534,362.22714 Z"/>
</g>
</g>
<g id="layer2">
<g style="fill:rgb(242,208,102); fill-opacity:1.0; stroke-linejoin: miter">
<path d="M935.13116,240.68582L935.13116,240.68582L943.4084,896.48645L943.4085,896.4934L945.5865,1631.8732C945.5872,1632.1366,945.44305,1632.3793,945.21124,1632.5045C944.97943,1632.6298,944.6976,1632.6173,944.4777,1632.4723L944.4777,1632.4723L581.1451,1392.8644C580.95184,1392.7368,580.8321,1392.5236,580.82416,1392.2921L580.82416,1392.2921L567.7547,1013.27454L567.7679,1013.1112C602.3857,838.0,637.01996,662.7964,690.3652,524.91675L690.3652,524.91675C743.72064,387.01102,815.7874,286.454,887.80084,185.9667C887.92914,185.78763,888.1329,185.6777,888.3531,185.6688C888.5732,185.65982,888.7852,185.75284,888.9277,185.92093L888.9277,185.92093L934.96173,240.23251C935.0693,240.35928,935.1291,240.51956,935.13116,240.68582L935.13116,240.68582 M933.70123,240.70383L933.87067,241.15714L887.8366,186.84555L888.96344,186.79977C816.9451,287.2938,744.98175,387.71518,691.69904,525.43286L691.69904,525.43286C638.40814,663.17175,603.7961,838.23987,569.17084,1013.3884L569.184,1013.2252L582.2535,1392.2428L581.93243,1391.6705L945.26495,1631.2784L944.1562,1631.8776L941.9782,896.49756L941.97845,896.5045L933.70123,240.70383 Z"/>
</g>
<g style="fill:rgb(242,208,102); fill-opacity:1.0; stroke-linejoin: miter">
<path d="M1003.9639,362.2557L1003.9639,362.2557C1000.0915,556.6658,996.2182,751.14417,994.9598,918.719L994.9598,918.719C993.7015,1086.302,995.0572,1227.1029,996.4128,1367.8643L995.3133,1367.2683L1224.321,1221.1791L1223.9946,1221.8583L1184.2041,851.84607L1184.2229,851.94934C1153.2534,732.6317,1122.293,613.3544,1092.0332,531.8136L1092.0332,531.8136C1061.7854,450.306,1032.2341,406.49362,1002.65607,362.6412L1003.9639,362.2557 M1002.534,362.22714C1002.54034,361.91544,1002.74786,361.64377,1003.0468,361.55557C1003.3459,361.46738,1003.66754,361.5831,1003.84186,361.84158L1003.84186,361.84158C1033.4407,405.72464,1063.0667,449.64822,1093.3738,531.31616L1093.3738,531.31616C1123.665,612.9413,1154.6453,732.3013,1185.6072,851.5901L1185.626,851.69324L1225.4165,1221.7054C1225.4456,1221.9756,1225.3193,1222.2388,1225.0901,1222.3848L1225.0901,1222.3848L996.08246,1368.4739C995.86346,1368.6136,995.58563,1368.6237,995.3571,1368.4998C995.1286,1368.3757,994.9853,1368.1377,994.983,1367.8779L994.983,1367.8779C993.62714,1227.0942,992.2712,1086.328,993.52985,918.7084L993.52985,918.7084C994.7884,751.1127,998.66144,556.645,1002.534,362.22714 Z"/>
</g>
<g style="fill:url(#grad0); fill-opacity:1.0; stroke-linejoin: miter">
<path d="M888.42535,186.85791C888.202,186.85791,887.9924,186.96559,887.8623,187.14713C816.0253,287.38852,744.23846,387.7166,691.053,525.1829C637.7416,662.97485,603.12036,838.0862,568.50244,1013.1985C568.4837,1013.29315,568.48517,1013.3894,568.50543,1013.48145L568.4997,1013.48145L581.54846,1391.8988C581.55743,1392.1587,581.70856,1392.3806,581.9251,1392.4916L581.9193,1392.4916L943.7709,1631.1239C943.8862,1631.2,944.01917,1631.2384,944.15247,1631.2384C944.265,1631.2384,944.37787,1631.2109,944.4806,1631.1556C944.70496,1631.0348,944.8449,1630.8005,944.8449,1630.5457L944.8449,1630.5447L944.8449,1630.5426L942.6709,896.4958L942.6711,896.4958L934.3971,240.95232C934.3951,240.79129,934.33704,240.63602,934.2329,240.51317L888.96265,187.10274C888.83105,186.94745,888.63776,186.85791,888.4342,186.85791 Z"/>
</g>
<g style="fill:url(#grad1); fill-opacity:1.0; stroke-linejoin: miter">
<path d="M1003.91864,363.83542C1003.54144,363.83542,1003.2336,364.1372,1003.2261,364.51434C999.3691,558.15125,995.52057,751.80115,994.2671,918.7138C993.0126,1085.7972,994.3562,1226.2441,995.7077,1366.5825C995.7114,1366.9626,996.0206,1367.2686,996.4003,1367.2686L996.40375,1367.2686C996.5404,1367.268,996.66766,1367.2277,996.7747,1367.1588L996.77295,1367.1588L1224.3198,1222.0024C1224.5193,1221.8752,1224.64,1221.655,1224.64,1221.4185L1224.64,1221.4175L1224.636,1221.3434L1184.9039,851.8762L1184.9117,851.8762C1184.9082,851.8424,1184.9021,851.80865,1184.8934,851.7753C1153.9276,732.4717,1122.9575,613.15424,1092.6826,531.5726C1062.8402,451.15732,1033.6678,407.3881,1004.50305,364.14084C1004.37427,363.9499,1004.159,363.83542,1003.9287,363.83542 Z"/>
</g>
</g>
<g id="layer3">
<g style="fill:rgb(242,208,102); fill-opacity:1.0; stroke-linejoin: miter">
<path d="M900.6657,93.01895L900.6657,93.01895C787.17,265.62076,673.7327,438.13925,602.0948,642.4131L602.0948,642.4131C530.4533,846.6963,500.60614,1082.7631,470.74957,1318.9276L469.50897,1318.3593C575.9687,1200.2673,682.45514,1082.145,767.0859,1000.54553L767.0859,1000.54553C851.7348,918.92834,914.5179,873.84863,977.2779,828.78455C977.5511,828.5884,977.9244,828.60925,978.174,828.8346L978.174,828.8346C1028.5652,874.31213,1078.9844,919.8141,1129.5237,975.28345L1129.5237,975.28345C1180.0562,1030.7452,1230.7117,1096.1765,1281.3364,1161.5677L1280.0686,1162.1399C1242.8601,967.6122,1205.6646,773.1582,1142.2349,594.9868L1142.2349,594.9868C1078.8079,416.82205,989.1418,254.9249,899.4428,92.9725L900.6657,93.01895 M899.47076,92.233185C899.60834,92.02402,899.84515,91.90207,900.0953,91.91153C900.3455,91.92099,900.5723,92.06064,900.69366,92.27957L900.69366,92.27957C990.384,254.21603,1080.1096,416.2142,1143.5823,594.5071L1143.5823,594.5071C1207.0554,772.80066,1244.2688,967.3651,1281.4731,1161.8711C1281.5354,1162.196,1281.3665,1162.5211,1281.065,1162.6572C1280.7634,1162.7933,1280.408,1162.7047,1280.2056,1162.4431L1280.2056,1162.4431C1229.5698,1097.0378,1178.9556,1031.6609,1128.4663,976.2466L1128.4663,976.2466C1077.9814,920.8369,1027.6111,875.37744,977.2159,829.89624L978.112,829.94617C915.3653,875.0006,852.65045,920.0322,768.07855,1001.57495L768.07855,1001.57495C683.49615,1083.1278,577.04,1201.2146,470.57123,1319.3167C470.362,1319.5486,470.0263,1319.6182,469.74225,1319.488C469.45807,1319.3579,469.29144,1319.0583,469.33075,1318.7483L469.33075,1318.7483C499.18268,1082.6202,529.0439,846.39343,600.7452,641.9398L600.7452,641.9398C672.45013,437.475,785.98846,264.81442,899.47076,92.233185 Z"/>
</g>
<g style="fill:rgb(242,208,102); fill-opacity:1.0; stroke-linejoin: miter">
<path d="M899.868,229.94357L899.868,229.94339L899.4007,230.62296L899.4007,230.62308C829.123,332.77957,758.93414,434.95706,706.91156,576.17993L706.91156,576.17993C654.764,717.74194,620.8615,898.5537,586.94525,1079.4507L585.7244,1078.826C640.9357,1020.80884,696.1839,962.7522,764.9135,906.12366L764.9135,906.12366C833.63995,849.4977,915.8427,794.30176,998.00775,739.13C998.2674,738.9557,998.6103,738.9702,998.8542,739.16614L998.8542,739.16614L1076.0066,801.13965L1076.0103,801.1427L1150.7898,862.0115L1149.6448,862.74084C1119.4983,743.15564,1089.3655,623.6272,1047.5427,518.1748L1047.5427,518.1748C1005.72284,412.7291,952.2072,321.33865,898.6618,229.89957L899.868,229.94357 M898.6895,229.13297C898.8282,228.93143,899.06024,228.81479,899.30475,228.8237C899.54926,228.83255,899.77216,228.96585,899.8957,229.17691L899.8957,229.17691C953.4351,320.60532,1007.0058,412.08493,1048.8721,517.6476L1048.8721,517.6476C1090.7354,623.20264,1120.8906,742.8275,1151.0317,862.39124C1151.1069,862.69006,1150.9824,863.00354,1150.7224,863.1692C1150.4626,863.3347,1150.1257,863.3152,1149.8867,863.1206L1149.8867,863.1206L1075.1074,802.25183L1075.1111,802.25476L997.9587,740.2811L998.805,740.31726C916.62335,795.5001,834.4871,850.65295,765.8232,907.2274L765.8232,907.2274C697.1678,963.7947,641.97833,1021.7876,586.76044,1079.8118C586.54205,1080.0413,586.19855,1080.0997,585.91656,1079.9554C585.6346,1079.811,585.48126,1079.4984,585.5396,1079.1871L585.5396,1079.1871C619.44916,898.32666,653.37164,717.38477,705.56976,575.68555L705.56976,575.68555C757.6608,434.27664,827.94745,331.96506,898.2222,229.81247L898.2222,229.81265L898.6895,229.13309 Z"/>
</g>
<g style="fill:rgb(175,157,96); fill-opacity:1.0; stroke-linejoin: miter">
<path d="M899.2808,229.51604C899.2878,229.51668,899.29425,229.52068,899.29785,229.52682L899.2979,229.52692L899.6101,230.06012L899.6101,230.06015C953.0486,321.31616,1006.46564,412.602,1048.2281,517.90295C1090.0709,623.40643,1120.2167,742.9882,1150.36,862.56055L1150.3601,862.56055C1150.3623,862.57,1150.3582,862.5799,1150.3502,862.58496L1150.3502,862.5849C1150.3464,862.58734,1150.343,862.58844,1150.3384,862.58844C1150.3326,862.58844,1150.328,862.5867,1150.3242,862.58356L1150.324,862.5834L1075.5448,801.7147L1075.5449,801.7147L998.8068,740.07495C998.7019,739.99066,998.5747,739.9387,998.44073,739.9256L998.4308,739.9246C998.4082,739.9224,998.3856,739.9213,998.36316,739.9213C998.2261,739.9213,998.09155,739.962,997.9769,740.03894C915.95087,795.1173,833.9535,850.19507,765.3827,906.6928C696.69104,963.2899,641.47345,1021.3133,586.2586,1079.3342L586.25867,1079.3342C586.25415,1079.339,586.249,1079.3412,586.24207,1079.3412C586.2381,1079.3412,586.23566,1079.3407,586.2322,1079.3389L586.2323,1079.3389C586.2236,1079.3344,586.21875,1079.3245,586.2204,1079.3151L586.2387,1079.2177L586.2388,1079.2174C620.1457,898.3711,654.0552,717.53326,706.2198,575.925C758.2775,434.6066,828.5171,332.35922,898.79285,230.20514L898.793,230.20514L899.26025,229.52563L899.2602,229.52563C899.264,229.52019,899.26984,229.51665,899.27655,229.51604 Z M900.011,93.321915C899.77783,93.321915,899.5603,93.43921,899.4322,93.63403C786.16077,265.89508,672.97406,438.20932,601.4411,642.18384C529.99976,845.8965,500.1077,1081.1863,470.3484,1316.5789C470.3104,1316.8792,470.47183,1317.1694,470.74704,1317.2955L470.74414,1317.2955C470.82437,1317.3328,470.91306,1317.3551,471.0067,1317.359C471.01648,1317.3594,471.0262,1317.3596,471.0359,1317.3596C471.25162,1317.3596,471.44672,1317.2603,471.57376,1317.1086L471.56903,1317.1086L471.9893,1316.6426L471.98932,1316.6426C577.79736,1199.2739,683.48035,1082.1189,767.5667,1001.0442C852.17816,919.46313,914.9286,874.40656,977.68195,829.3472C977.6858,829.3445,977.68976,829.3431,977.69476,829.3431C977.70087,829.3431,977.70575,829.3451,977.7099,829.3488L977.7362,829.3727L977.73755,829.37396C1028.1229,874.8461,1078.5066,920.3183,1129.0116,975.75C1178.914,1030.5203,1228.9395,1095.0204,1278.9595,1159.6301C1279.0933,1159.8029,1279.2971,1159.8988,1279.5073,1159.8988C1279.5822,1159.8988,1279.6578,1159.8867,1279.7313,1159.8616C1280.0116,1159.7657,1280.2,1159.5023,1280.2,1159.206L1280.2,1159.2051C1280.2,1159.1614,1280.1958,1159.1178,1280.1876,1159.075C1243.168,965.5382,1206.0186,772.08716,1142.8875,594.7545C1079.5741,416.90912,990.1285,255.277,900.626,93.679C900.5039,93.45866,900.2719,93.321915,900.02,93.321915 Z"/>
</g>
</g>
<g id="layer4">
<g style="fill:rgb(241,228,195); fill-opacity:1.0; stroke-linejoin: miter">
<path d="M703.0344,495.72906C685.3554,526.6358,666.20874,565.83655,641.7493,634.58875C602.5173,744.8649,587.3299,791.8091,549.1607,1062.6008C600.52545,780.4821,619.19147,734.2093,619.19147,734.2093C643.1254,645.3671,686.0347,527.5483,704.3664,495.2581 Z"/>
</g>
<g style="fill:rgb(241,228,195); fill-opacity:1.0; stroke-linejoin: miter">
<path d="M803.709,338.19363L803.709,338.19464L803.709,338.19565L803.74023,338.061C803.41455,334.48538,825.1252,310.80563,865.2327,259.36404L899.493,211.64035C910.9376,216.58337,926.7624,236.56363,947.3359,277.24014C932.7664,244.58392,914.75464,189.6816,899.36035,185.3445C897.43915,184.80322,878.36755,217.04507,860.0913,249.59648C828.49884,305.86514,804.44006,332.71158,803.709,338.19363L803.709,338.19565L803.709,338.19363 Z"/>
</g>
<g style="fill:rgb(241,228,195); fill-opacity:1.0; stroke-linejoin: miter">
<path d="M962.49274,817.21466L979.88434,807.13586C981.8213,806.2588,983.49695,805.8694,984.9114,805.96783C998.0232,811.18414,1006.504,817.86914,1006.504,817.86914C1008.5594,819.48926,1017.23145,826.11237,1026.2928,834.5585C1046.2131,853.12616,1053.3054,861.4432,1053.3054,861.4432C1073.052,884.59955,1096.1572,909.7198,1107.0935,925.04266C1062.3097,865.468,1054.7017,856.98224,1054.7017,856.98224C1047.0936,848.49646,1036.7422,839.24304,1028.4401,832.09985C1017.77167,822.92065,1009.13745,816.8661,1004.77094,814.13617C996.4173,808.9135,986.8618,805.0311,986.8618,805.0311C983.9837,804.7742,981.7052,805.14465,980.02625,806.1426L962.3448,817.3938 Z"/>
</g>
<g style="fill:rgb(35,28,7); fill-opacity:1.0; stroke-linejoin: miter">
<path d="M583.8107,771.3423L583.8107,771.3423C555.6361,874.23083,548.18945,913.9156,548.1965,913.8781L548.1965,913.8781C521.59375,1055.6166,513.2344,1138.8134,510.07788,1170.2256L510.07788,1170.2256C509.54776,1175.501,509.1621,1179.3395,508.86157,1181.7423L508.86157,1181.7423C506.397,1201.4454,507.10205,1209.061,509.3549,1209.3428L509.3545,1209.3428C509.41153,1209.3499,509.47403,1209.3529,509.54425,1209.3506L508.80228,1209.6946C650.34534,1053.3429,725.99225,973.11993,735.2802,969.922L734.8812,970.1711C757.54755,947.54846,815.2499,900.99835,907.6171,830.18945L907.6171,830.18945C927.17163,815.199,965.99713,791.5734,985.1418,784.8375L985.1418,784.8375C1015.7974,774.0515,1119.1029,877.15326,1184.2828,953.6883L1184.2828,953.6883C1192.36,963.17255,1197.972,964.59625,1200.3246,962.59283L1200.3246,962.59283C1201.0471,961.9775,1201.6395,960.95135,1201.9738,959.42444L1201.9531,959.73505C1195.225,878.6499,1150.8822,669.5091,1073.293,533.8768L1073.2931,533.87683C1073.1721,533.6654,1073.1117,533.5664,1073.0928,533.5386L1073.0928,533.53845C1072.538,532.7216,1073.3345,534.43146,1074.4308,533.813L1074.4409,533.8072C1075.4198,533.2404,1074.6318,531.8005,1074.9187,532.61743L1074.9191,532.6186C1074.9735,532.7743,1075.2732,533.4369,1075.8652,534.741L1075.8652,534.741C1084.3116,553.3454,1144.1746,685.2196,1182.223,923.9414C1182.2976,924.4091,1182.0491,924.8687,1181.6168,925.0624C1181.1846,925.25604,1180.6763,925.1356,1180.3768,924.7687L1180.3768,924.7687C1120.6892,851.62366,1006.1579,755.1695,992.1366,766.61115L992.1371,766.6108C992.11743,766.62683,992.1047,766.6374,992.0862,766.6532L992.08704,766.65247C989.6005,768.7807,982.6192,773.174,972.06036,779.82477L972.06036,779.82477C936.33405,802.32794,858.3318,851.4601,766.32825,930.2082L766.32825,930.2082C718.1069,971.48206,666.0396,1020.8916,614.2002,1078.864L614.2002,1078.864C613.41907,1079.7375,612.35126,1080.9336,611.44244,1081.9517L611.44244,1081.9517C610.42114,1083.0957,609.0223,1084.6626,607.85077,1085.9727L607.85077,1085.9727C586.9585,1109.3368,546.59064,1153.8666,523.8515,1166.7413C523.5267,1166.9253,523.12854,1166.9225,522.80634,1166.734C522.48413,1166.5455,522.28656,1166.1998,522.28766,1165.8265L522.28766,1165.8265C522.41907,1122.1577,533.17084,1010.3458,581.77356,770.85724C581.8887,770.29016,582.4416,769.92377,583.00867,770.0389C583.57574,770.154,583.94214,770.7069,583.827,771.274L583.827,771.274C535.2277,1010.74567,524.5138,1122.3838,524.383,1165.8329L522.81915,1164.9181C545.1791,1152.258,585.269,1108.0828,606.2889,1084.5759L606.2889,1084.5759C607.42,1083.311,608.89777,1081.6559,609.87933,1080.5564L609.87933,1080.5564C610.8484,1079.4708,611.79596,1078.4093,612.6383,1077.4673L612.6383,1077.4673C664.54706,1019.4173,716.68384,969.9421,764.9658,928.6164L764.9658,928.6164C857.08704,849.7676,935.19135,800.57135,970.94366,778.0518L970.94366,778.0518C981.61053,771.333,988.38983,767.059,990.7246,765.06067L990.72546,765.05994C990.75836,765.0318,990.7785,765.015,990.8114,764.9881L990.8119,764.98773C1006.92175,751.8418,1123.4199,851.65607,1182.0001,923.444L1180.1539,924.27124C1142.142,685.7783,1082.3467,554.08606,1073.9573,535.60724L1073.9573,535.60724C1073.4037,534.388,1073.0364,533.58215,1072.9413,533.3105L1072.9417,533.31165C1073.2004,534.04865,1072.4032,532.5658,1073.3911,531.99384L1073.4012,531.98804C1074.5073,531.3641,1075.3323,533.10675,1074.8259,532.3612L1074.8259,532.3611C1074.8995,532.46936,1074.9983,532.638,1075.1117,532.8363L1075.1118,532.83636C1152.8989,668.8147,1197.2968,878.2801,1204.0413,959.5618C1204.0499,959.6658,1204.043,959.7705,1204.0206,959.87244L1204.0206,959.87244C1203.6223,961.6924,1202.858,963.1873,1201.683,964.18805L1201.683,964.18805C1197.5668,967.6934,1190.4181,964.12396,1182.6876,955.0468L1182.6876,955.0468C1116.7302,877.5988,1014.7326,776.6474,985.8372,786.8141L985.8372,786.8141C966.9924,793.4445,928.3691,816.9211,908.8919,831.8523L908.8919,831.8523C816.4859,902.6909,758.9087,949.1502,736.3613,971.6541C736.2489,971.7663,736.1125,971.8515,735.96234,971.9032L735.96234,971.9032C727.35126,974.86804,652.3045,1054.3009,510.35562,1211.1008C510.16513,1211.3113,509.89734,1211.4354,509.61365,1211.4448L509.61365,1211.4448C509.43958,1211.4506,509.26822,1211.4435,509.0952,1211.4219L509.09482,1211.4219C504.14514,1210.8027,504.55078,1199.3236,506.78247,1181.4823L506.78247,1181.4823C507.0789,1179.1123,507.46164,1175.3048,507.9931,1170.0161L507.9931,1170.0161C511.15356,1138.5645,519.52014,1055.3062,546.13715,913.49164L546.13715,913.49164C546.1435,913.45795,553.6045,873.71674,581.78986,770.78894C581.9427,770.2309,582.5189,769.90234,583.07697,770.0552C583.635,770.208,583.96356,770.78424,583.8107,771.3423 Z"/>
</g>
<g style="fill:rgb(35,28,7); fill-opacity:1.0; stroke-linejoin: miter">
<path d="M1084.1953,553.6419C1084.1299,553.6419,1084.0688,553.6746,1084.0326,553.72906C1083.9963,553.7835,1083.9897,553.85254,1084.015,553.9129C1103.7299,601.01526,1150.4121,725.5973,1182.0299,923.97217C1182.0906,924.3527,1181.8884,924.72644,1181.5369,924.884L1181.5369,924.8839C1181.4241,924.93445,1181.3064,924.95856,1181.1888,924.95856C1180.9382,924.95856,1180.6941,924.8482,1180.5283,924.6451C1124.1388,855.5418,1018.67004,765.4851,995.3254,765.4851C993.95026,765.4851,992.82874,765.794,992.0129,766.46075L992.01166,766.46075C991.99567,766.4738,991.97284,766.49304,991.95496,766.5092L991.9537,766.5092C989.4946,768.6114,982.617,772.94434,972.1865,779.5142L972.18646,779.5142L971.9561,779.65936L971.9562,779.65936L971.67596,779.8359C935.8199,802.4209,857.97644,851.50684,766.2011,930.05963C717.97394,971.3385,665.9004,1020.75397,614.05444,1078.7336C613.43304,1079.4285,612.0455,1080.9825,611.2966,1081.8214C610.27344,1082.9675,608.8782,1084.5304,607.705,1085.8423C586.80096,1109.2196,546.45886,1153.7164,523.7552,1166.5712C523.6241,1166.6454,523.48083,1166.6818,523.33527,1166.6818C523.1864,1166.6818,523.03796,1166.6431,522.9051,1166.5653L522.905,1166.5652C522.64307,1166.412,522.48224,1166.1307,522.48315,1165.8271C522.60864,1124.122,532.4265,1020.2035,575.6965,802.1293C575.7067,802.07745,575.6956,802.0237,575.6656,801.9802C575.63556,801.93677,575.5893,801.9072,575.5372,801.89844L575.5314,801.89746C575.5204,801.8956,575.5095,801.8947,575.4987,801.8947C575.4116,801.8947,575.3331,801.9532,575.31,802.0399C553.98737,882.02606,548.0228,913.7435,548.0043,913.84314L548.00415,913.84314C521.4005,1055.5865,513.04004,1138.792,509.88333,1170.206L509.88333,1170.2062L509.88168,1170.2227L509.88004,1170.2391L509.88004,1170.239C509.3512,1175.5017,508.96747,1179.3202,508.66757,1181.718C506.29242,1200.7063,506.80432,1208.7234,509.09888,1209.4854C509.11896,1209.4921,509.1397,1209.4952,509.16037,1209.4952C509.19995,1209.4952,509.23914,1209.4833,509.2724,1209.4601C509.28494,1209.4513,509.2963,1209.4413,509.3063,1209.43L509.30545,1209.43C649.2939,1054.8014,724.6752,974.81683,735.0731,970.21533L735.06573,970.21533C735.1042,970.2081,735.1397,970.1895,735.1676,970.16174C757.9261,947.49493,815.5656,901.0026,907.7361,830.3446C927.2834,815.3597,966.0897,791.7481,985.20667,785.022C986.67883,784.50397,988.32666,784.2513,990.1386,784.2513C1025.6787,784.2513,1122.0979,880.9714,1184.134,953.81506C1190.1947,960.9316,1194.9167,963.5759,1197.961,963.5759C1198.9836,963.5759,1199.8226,963.27704,1200.4513,962.7417C1201.1704,962.1293,1201.7521,961.1453,1202.1016,959.7382L1202.092,959.7382C1202.1256,959.6986,1202.142,959.64734,1202.1377,959.5956C1195.6971,882.2911,1155.1913,689.1033,1084.3794,553.74677C1084.3457,553.6823,1084.2789,553.6419,1084.2062,553.6419 Z"/>
</g>
<g style="fill:rgb(35,28,7); fill-opacity:1.0; stroke-linejoin: miter">
<path d="M931.585,185.23811L931.585,185.23811L928.36096,179.1122L928.35284,179.09647C919.6112,161.78372,911.7034,148.35638,904.05774,139.21504L904.0577,139.21503C902.9144,137.84813,901.9765,136.1248,901.12305,134.5642L901.12305,134.5642C900.28827,133.03773,899.5411,131.6799,898.716,130.69339L898.716,130.6934C897.4323,129.15866,896.07745,128.49696,893.35376,130.77502L893.35376,130.77502C890.80676,132.90529,887.34515,137.47011,882.4796,145.92862L882.4796,145.92863C869.1061,169.17764,845.6122,209.2467,810.0483,265.0667L810.0483,265.0667C807.69604,268.7587,806.48846,271.46408,805.9792,272.91632L806.03815,272.5551L806.0549,273.76416L806.0536,273.83188C806.03784,274.1415,806.2062,272.9457,805.12555,272.89032L805.12555,272.89032C804.7018,272.8686,804.462,273.13217,804.56335,273.04654L804.5635,273.04642C805.2133,272.49762,807.99554,268.16492,812.96576,260.37347L812.96576,260.37347C826.10236,239.78049,853.4436,196.91943,892.02637,147.89023L892.02637,147.89023C894.9261,144.2054,899.9087,146.66162,904.33307,150.14334L904.33307,150.14334C916.66144,159.84496,933.3856,184.1715,933.3743,184.15509L933.55975,184.75015L933.55975,184.75018C933.55975,185.3288,933.0907,185.79785,932.5121,185.79785C931.9335,185.79785,931.4644,185.3288,931.4644,184.75018L931.4644,184.75018L931.4644,184.75015L931.64984,185.34521C931.5959,185.26707,915.06146,161.25214,903.0373,151.78992L903.0373,151.78992C898.15155,147.94511,895.12585,147.33969,893.673,149.18597L893.673,149.18597C855.15656,198.1309,827.8614,240.91895,814.73224,261.5003L814.73224,261.5003C809.9462,269.00296,806.88806,273.82587,805.9154,274.64725L805.9155,274.64713C805.87085,274.68488,805.5192,275.00854,805.01825,274.98285L805.01825,274.98285C803.8412,274.92252,803.9663,273.62225,803.96106,273.72543L803.9598,273.79315L803.94305,272.5841C803.94135,272.46115,803.9613,272.33893,804.002,272.2229L804.002,272.2229C804.57465,270.5901,805.8603,267.74066,808.2812,263.94086L808.2812,263.94086C843.8256,208.1514,867.3013,168.11292,880.6633,144.88387L880.6633,144.88388C885.5346,136.41537,889.15173,131.55795,892.0095,129.16779L892.0095,129.16779C895.61176,126.15491,898.28955,126.91771,900.3232,129.3491L900.3232,129.34912C901.308,130.52658,902.15607,132.0862,902.9614,133.55885L902.9614,133.55885C903.8394,135.16435,904.679,136.69191,905.665,137.87079L905.6649,137.87077C913.4716,147.20464,921.4664,160.80923,930.2232,178.15207L930.2151,178.13634L933.43915,184.26225C933.7086,184.77426,933.512,185.40779,933.0,185.67726C932.488,185.94673,931.8545,185.75012,931.585,185.23811 Z"/>
</g>
<g style="fill:rgb(35,28,7); fill-opacity:1.0; stroke-linejoin: miter">
<path d="M819.1939,250.59386L819.3471,250.63666L819.35547,250.65186L819.3013,250.70609L819.1939,250.64102L819.1939,250.59386 Z M819.2021,250.7615C819.20996,250.7626,819.21796,250.76317,819.226,250.76317C819.22943,250.76317,819.23285,250.76306,819.23627,250.76286L819.2445,250.76286L819.1939,250.81343L819.1939,250.7615 Z M896.384,129.12323C895.52026,129.12323,894.5137,129.57932,893.24274,130.64232C890.67035,132.79384,887.1955,137.38327,882.32965,145.84235L882.32196,145.87103L882.3132,145.87103C870.12415,167.06029,849.538,202.20396,819.07965,250.49785C819.071,250.5116,819.0644,250.52628,819.06,250.54144L819.05176,250.54144C819.0489,250.54555,819.04614,250.54979,819.04364,250.55415L819.05676,250.55415C819.0567,250.55434,819.0567,250.55452,819.05664,250.5547L819.0433,250.5547C819.0286,250.58011,819.02026,250.60959,819.02026,250.64102L819.02026,250.64203C819.02026,250.72112,819.0739,250.79013,819.1506,250.80968C819.165,250.81335,819.17957,250.81511,819.19385,250.81511C819.25574,250.81511,819.3137,250.78252,819.34125,250.7317L819.34186,250.7307L819.33813,250.72845L819.32996,250.72845C819.3461,250.71631,819.3602,250.70125,819.3715,250.68375C834.027,227.89847,858.92236,190.23705,892.16235,147.99722C893.14734,146.74559,894.3727,146.23166,895.741,146.23166C898.2945,146.23166,901.35645,148.02107,904.2261,150.2793C911.0408,155.64197,919.2122,165.49554,925.14886,173.2254C925.18225,173.26888,925.2334,173.29305,925.28613,173.29305C925.3047,173.29305,925.3235,173.29005,925.34174,173.28384C925.4119,173.26001,925.4591,173.19414,925.4591,173.12003L925.4591,173.11902L925.43945,173.03897C917.8965,158.58496,910.94415,147.17894,904.1904,139.10405L904.1904,139.10403L904.19037,139.10403C903.0743,137.76965,902.1534,136.0878,901.3069,134.53964C901.3068,134.53964,901.284,134.49797,901.27484,134.48122L901.2593,134.45274L901.2593,134.4527C900.4331,132.94202,899.68195,131.5787,898.8487,130.5824C898.1518,129.74922,897.3968,129.12323,896.384,129.12323 Z"/>
</g>
<g style="fill:rgb(179,170,137); fill-opacity:1.0; stroke-linejoin: miter">
<path d="M1128.0691,935.2521L1128.0691,935.2521L1138.8823,950.4054L1138.7717,950.2645C1141.3518,953.2544,1144.179,956.5267,1146.5421,959.2618L1146.5424,959.2621L1153.1747,966.94135L1153.1753,966.94196C1184.3535,1003.07196,1199.3137,1021.0828,1231.8218,1069.5372L1231.8218,1069.5372C1234.4016,1073.3827,1237.2051,1075.981,1238.1552,1076.0845L1237.9447,1078.0173L1237.9447,1078.0173L1238.1549,1076.0845C1238.1417,1076.083,1237.9689,1076.0759,1237.776,1076.2053L1237.776,1076.2053C1237.5143,1076.3809,1238.4281,1075.3997,1236.9554,1068.9882L1236.957,1068.9952C1236.9937,1069.1519,1237.0419,1069.2588,1237.0253,1069.2181L1237.0248,1069.2168C1236.9055,1068.9247,1236.1592,1067.405,1234.8456,1064.7355L1234.8456,1064.7356C1229.8442,1054.5725,1217.4714,1029.4316,1207.5101,1005.4054L1208.0693,1006.16095L1125.2496,937.88165C1124.4211,937.1986,1124.3031,935.9732,1124.9862,935.14465C1125.6693,934.3161,1126.8948,934.19824,1127.7233,934.8813L1127.7233,934.8813L1210.543,1003.1606C1210.7885,1003.3629,1210.9803,1003.6223,1211.1022,1003.91614L1211.1022,1003.91614C1221.0092,1027.8114,1233.3306,1052.8501,1238.3346,1063.0186L1238.3346,1063.0187C1239.588,1065.5658,1240.4363,1067.2855,1240.6246,1067.7466L1240.6241,1067.7452C1240.6349,1067.7715,1240.7012,1067.9286,1240.7437,1068.1105L1240.7452,1068.1176C1241.958,1073.3976,1242.3665,1077.8083,1239.9425,1079.4346L1239.9425,1079.4346C1239.2285,1079.9136,1238.4391,1080.0269,1237.7345,1079.9502L1237.9447,1078.0173L1237.9447,1078.0173L1237.7343,1079.9502C1234.6473,1079.614,1230.8682,1075.0957,1228.5925,1071.7037L1228.5925,1071.7037C1196.1942,1023.41284,1181.3391,1005.531,1150.2312,969.4825L1150.2318,969.4831L1143.5995,961.80383L1143.5997,961.80414C1141.3447,959.1943,1138.3005,955.67065,1135.8276,952.80505C1135.7886,952.7598,1135.7517,952.7128,1135.717,952.6642L1135.717,952.6642L1124.9038,937.51086C1124.28,936.6368,1124.483,935.42255,1125.357,934.7988C1126.2311,934.1751,1127.4453,934.378,1128.0691,935.2521 Z"/>
</g>
<g style="fill:rgb(179,170,137); fill-opacity:1.0; stroke-linejoin: miter">
<path d="M1136.6559,946.82184C1136.5424,946.82184,1136.4285,946.8637,1136.3398,946.9462L1136.3397,946.94635C1136.1698,947.10486,1136.1434,947.3651,1136.2784,947.5545L1138.5049,950.67554L1138.5049,950.6754C1138.5386,950.7227,1138.5804,950.76263,1138.6276,950.79364L1138.6161,950.79364L1146.1913,959.5648L1146.1918,959.56537L1152.8239,967.2443L1152.8248,967.2443C1152.828,967.24854,1152.8313,967.2526,1152.8347,967.25665L1152.8351,967.25665L1152.8407,967.2627L1152.84,967.2627C1183.9987,1003.37024,1198.9479,1021.36975,1231.4368,1069.7955C1233.728,1073.2107,1236.2446,1075.7286,1237.5554,1076.37L1237.5555,1076.3701C1237.6199,1076.4015,1237.689,1076.4174,1237.7593,1076.4174C1237.8313,1076.4174,1237.9069,1076.3995,1237.9728,1076.3654L1237.9735,1076.365C1237.9865,1076.3583,1237.9901,1076.3561,1238.0046,1076.347C1238.1407,1076.2621,1238.2229,1076.1139,1238.2229,1075.9537L1238.2229,1075.9528L1238.2229,1075.9517L1238.2269,1075.9517C1238.3197,1075.2295,1238.419,1073.3995,1237.4777,1069.1957C1237.4767,1069.1912,1237.4755,1069.1866,1237.4742,1069.1821L1237.4774,1069.1821C1237.4768,1069.1549,1237.4739,1069.1273,1237.4684,1069.0999L1237.459,1069.0999L1237.4403,1069.0088C1237.2867,1068.6495,1236.5427,1067.1345,1235.2844,1064.5771L1235.272,1064.5771C1235.2686,1064.5536,1235.2615,1064.5303,1235.2506,1064.5083C1235.25,1064.5071,1235.2494,1064.506,1235.2489,1064.5048L1235.2477,1064.5048C1235.2426,1064.4956,1235.2377,1064.4882,1235.2365,1064.4862L1235.2397,1064.4862C1230.2649,1054.3773,1218.0856,1029.6244,1208.1885,1005.8313L1208.1764,1005.8313C1208.1665,1005.70886,1208.1082,1005.59204,1208.0093,1005.5106L1136.9508,946.9277L1136.907,946.8992L1136.9066,946.899L1136.912,946.899C1136.8345,946.8476,1136.745,946.82184,1136.6559,946.82184 Z"/>
</g>
<g style="fill:rgb(179,170,137); fill-opacity:1.0; stroke-linejoin: miter">
<path d="M579.7061,1088.6776L579.7061,1088.6776L542.9789,1135.1707C542.4093,1135.8917,541.4127,1136.1156,540.5895,1135.7074C539.76624,1135.2992,539.3411,1134.3705,539.5703,1133.4806L539.5703,1133.4806C553.2112,1080.5145,560.0172,1053.7708,559.9993,1053.841L559.9993,1053.841C565.58276,1031.9004,586.0746,961.2364,586.0686,961.2571C586.35754,960.2607,587.37787,959.6667,588.387,959.90735C589.3962,960.148,590.0386,961.1386,589.84674,962.15814L589.84674,962.15814C581.09045,1008.69147,580.6715,1042.8125,580.2063,1080.9236L580.2063,1080.9236C580.1774,1083.2925,580.1555,1085.0997,580.1246,1087.4974C580.1108,1088.5712,579.2291,1089.4303,578.1554,1089.4165C577.08167,1089.4027,576.2225,1088.5211,576.23627,1087.4474L576.23627,1087.4474C576.2676,1085.0214,576.28876,1083.275,576.318,1080.8762L576.318,1080.8762C576.78345,1042.747,577.2013,1008.3316,586.0252,961.439L589.80334,962.3401C589.7975,962.3602,569.3306,1032.9402,563.76776,1054.7999L563.76776,1054.7999C563.78564,1054.7297,556.9769,1081.4843,543.33606,1134.4503L539.9275,1132.7603L576.6547,1086.2672C577.3204,1085.4246,578.543,1085.2811,579.3856,1085.9468C580.2282,1086.6124,580.37177,1087.835,579.7061,1088.6776 Z"/>
</g>
<g style="fill:rgb(179,170,137); fill-opacity:1.0; stroke-linejoin: miter">
<path d="M545.43665,1125.5084L545.54535,1125.5175L545.6295,1125.5427L545.6295,1125.5427L545.6295,1125.5427L545.6295,1125.5427L545.4385,1125.5109L545.43665,1125.5084 Z M545.63,1125.7675L545.62964,1125.7678L545.6294,1125.7675 Z M581.0822,992.4096C580.9814,992.4096,580.89276,992.47644,580.86505,992.57336L580.8649,992.57385L580.858,992.5984C574.5813,1014.52966,566.68994,1042.4011,563.54895,1054.7451L563.5486,1054.7451C563.54596,1054.7556,563.51825,1054.8645,563.50977,1054.8977C562.97974,1056.9792,556.93713,1080.6991,545.41113,1125.4854C545.39374,1125.553,545.40857,1125.6249,545.45135,1125.68L545.4499,1125.68C545.4874,1125.7292,545.54486,1125.7627,545.6109,1125.7682C545.6172,1125.7687,545.6235,1125.7689,545.62964,1125.7689C545.7009,1125.7689,545.7661,1125.7354,545.8079,1125.6816L545.8071,1125.6816L576.41614,1086.9346L576.42114,1086.9346C576.45166,1086.8964,576.46985,1086.8484,576.4705,1086.7965C576.49744,1084.689,576.5132,1083.3912,576.53906,1081.2675L576.5438,1080.879L576.5439,1080.8788L576.54425,1080.8458L576.5442,1080.8458C576.90015,1051.6871,577.2298,1024.7103,581.31213,992.66406C581.3203,992.5997,581.3005,992.5349,581.25757,992.4862C581.21466,992.4375,581.15295,992.4096,581.0881,992.4096 Z"/>
</g>
<g style="fill:rgb(179,170,137); fill-opacity:1.0; stroke-linejoin: miter">
<path d="M949.5267,236.24068C949.3885,236.28146,949.1578,236.38696,948.9982,236.53882C948.8387,236.69067,948.7267,236.88159,948.72034,237.12558C948.71405,237.36955,948.76764,237.65482,951.89496,244.30704C955.0223,250.95924,961.6744,265.32108,969.06836,280.88992C976.46234,296.45877,983.6051,312.8772,991.47784,328.60712C999.3506,344.33707,1006.67053,359.1929,1012.6185,372.53564C1018.56647,385.8784,1022.84534,397.05154,1024.616,403.3662C1026.3866,409.68088,1027.118,412.6064,1027.6802,415.075C1028.2423,417.54364,1028.6353,419.5553,1028.8589,421.11002C1029.0825,422.66473,1029.1368,423.76254,1029.093,424.35742C1029.0492,424.95227,1029.0492,424.95227,1029.0784,424.5557C1029.0784,424.5557,1029.1368,423.76254,1029.0261,422.51245C1028.9153,421.26233,1028.6353,419.5553,1028.1859,417.3913C1027.7366,415.22733,1027.118,412.6064,1026.3302,409.52856C1025.5424,406.4507,1023.5614,396.84097,1019.6913,384.4441C1015.8212,372.04718,1009.91626,357.75784,1003.6736,341.86993C997.43097,325.98206,988.6384,310.39154,980.07544,294.82996C971.5124,279.2684,963.4737,264.40982,956.3428,251.10434C949.2118,237.79884,949.02057,237.56311,948.9575,237.33801C948.89453,237.11293,948.90906,236.92645,948.9806,236.76431C949.05206,236.60219,949.21075,236.47388,949.3142,236.42038C949.5524,236.32652,949.39185,236.28105,949.5267,236.24068 Z"/>
</g>
<g style="fill:rgb(241,228,195); fill-opacity:1.0; stroke-linejoin: miter">
<path d="M1208.1234,898.44775L1208.2621,899.4454Q1208.9226,904.1706,1209.3843,906.9229Q1209.9305,910.2102,1210.4944,912.79584Q1209.6262,908.01514,1209.2308,905.57Q1208.6724,902.1491,1208.1355,898.44775L1208.1234,898.44775 M1210.5642,913.18164L1210.8226,914.61804L1213.0745,928.9041Q1214.4612,936.1692,1216.3021,943.7055Q1219.3004,955.922,1222.1357,966.45435L1235.8053,1017.14996Q1237.1387,1023.03973,1238.3373,1029.545Q1239.4006,1035.0891,1242.5491,1055.2734Q1243.3757,1059.9742,1244.0043,1062.2563Q1246.456,1071.0857,1248.6395,1073.1875Q1246.9142,1071.7275,1244.5078,1060.4602Q1243.9298,1057.2042,1243.2809,1052.1927L1240.1904,1027.8354Q1239.4595,1022.4309,1238.798,1018.3916Q1238.3527,1015.1276,1235.1318,1003.6333Q1218.5043,946.6627,1217.2068,941.2141Q1215.9128,936.5959,1210.5642,913.18164"/>
</g>
</g>
<defs>
<linearGradient id="grad1" gradientUnits="userSpaceOnUse" x1="1369.6167" y1="1583.3788" x2="589.7805" y2="-55.715576" >
<stop offset="0.0%" style="stop-color:rgb(239,207,100); stop-opacity:1.0" />
<stop offset="33.233166%" style="stop-color:rgb(239,213,124); stop-opacity:1.0" />
<stop offset="47.168503%" style="stop-color:rgb(238,209,112); stop-opacity:1.0" />
<stop offset="59.905823%" style="stop-color:rgb(230,209,136); stop-opacity:1.0" />
<stop offset="74.08044%" style="stop-color:rgb(238,207,103); stop-opacity:1.0" />
<stop offset="100.0%" style="stop-color:rgb(190,169,100); stop-opacity:1.0" />
</linearGradient>
<linearGradient id="grad0" gradientUnits="userSpaceOnUse" x1="1132.0718" y1="1668.9098" x2="424.64832" y2="76.35339" >
<stop offset="0.0%" style="stop-color:rgb(239,207,100); stop-opacity:1.0" />
<stop offset="33.233166%" style="stop-color:rgb(239,213,124); stop-opacity:1.0" />
<stop offset="47.168503%" style="stop-color:rgb(238,209,112); stop-opacity:1.0" />
<stop offset="59.905823%" style="stop-color:rgb(230,209,136); stop-opacity:1.0" />
<stop offset="74.08044%" style="stop-color:rgb(238,207,103); stop-opacity:1.0" />
<stop offset="100.0%" style="stop-color:rgb(190,169,100); stop-opacity:1.0" />
</linearGradient>
</defs>
</svg>