<?xml version="1.0" encoding="UTF-8"?>
<svg class="targeting-brackets" xmlns="http://www.w3.org/2000/svg" viewBox="0 0 1290.25 1017.78" style="fill:cyan;"><g>
<path class="cls-1" d="M1017.78,978.6h136.02c7.06,0,12.78-5.72,12.78-12.78v-63.04h123.67v102.23c0,7.06-5.72,12.78-12.78,12.78h-113.45s-146.24,0-146.24,0v-39.18ZM1017.78,39.18h136.02c7.06,0,12.78,5.72,12.78,12.78v63.04h123.67V12.78c0-7.06-5.72-12.78-12.78-12.78h-113.45s-146.24,0-146.24,0v39.18ZM1260.33,136.71h-96.31v744.37h96.31V136.71ZM272.47,1017.78H12.78c-7.06,0-12.78-5.72-12.78-12.78v-102.23h123.67s0,63.04,0,63.04c0,7.06,5.72,12.78,12.78,12.78h136.02v39.18ZM272.47,0H126.23s-113.45,0-113.45,0C5.72,0,0,5.72,0,12.78v102.23s123.67,0,123.67,0v-63.04c0-7.06,5.72-12.78,12.78-12.78h136.02s0-39.18,0-39.18ZM29.92,881.08h96.31s0-744.37,0-744.37H29.92s0,744.37,0,744.37Z"/>
</g></svg>