<?xml version="1.0" encoding="UTF-8"?>
<svg class="targeting-disc" xmlns="http://www.w3.org/2000/svg" viewBox="0 0 157.06 155.27"><defs><style>.cls-1{fill:none;stroke:#f9c33d;stroke-miterlimit:10;stroke-width:4px;}.cls-2{fill:aqua;}</style></defs><g id="Layer_1-2"><path class="cls-2" d="M128.76,77.63c0-6.89-1.39-13.45-3.91-19.42,0-.02-.01-.03-.02-.05-2.57-6.06-6.3-11.52-10.91-16.08L151.35,5.05l4.42,4.89c1.46,1.61,1.71,3.97.62,5.85-5.11,8.86-19.24,33.32-19.24,33.32,4.23,8.62,6.61,18.3,6.61,28.52,0,10.23-2.38,19.91-6.61,28.53l19.24,33.32c1.09,1.88.83,4.25-.62,5.86l-4.42,4.89-37.43-37.03c4.61-4.56,8.34-10.01,10.91-16.08,0-.02.01-.03.02-.05,2.52-5.97,3.91-12.54,3.91-19.42M144.21,113.38c5.82-10.62,9.14-22.8,9.14-35.74s-3.31-25.12-9.13-35.74l-2.38,4.06c4.81,9.53,7.51,20.29,7.51,31.68s-2.7,22.13-7.5,31.65l2.36,4.1ZM28.3,77.54c0,6.89,1.39,13.45,3.91,19.42,0,.02.01.03.02.05,2.57,6.06,6.3,11.52,10.91,16.08L5.72,150.12l-4.42-4.89c-1.46-1.61-1.71-3.98-.62-5.86l19.24-33.32c-4.22-8.62-6.61-18.3-6.61-28.53,0-10.23,2.38-19.91,6.61-28.52,0,0-14.13-24.47-19.24-33.32-1.09-1.88-.83-4.24.62-5.85l4.42-4.89,37.43,37.03c-4.61,4.56-8.34,10.01-10.91,16.08,0,.02-.01.03-.02.05-2.52,5.97-3.91,12.54-3.91,19.42M15.22,109.19c-4.8-9.52-7.5-20.28-7.5-31.65s2.71-22.14,7.51-31.68l-2.38-4.06c-5.82,10.62-9.13,22.8-9.13,35.74s3.31,25.12,9.14,35.74l2.36-4.1Z"/><path class="cls-1" d="M147.59,1.47l-32.8,30.12c-9.93-7.78-22.44-12.42-36.03-12.42-13.59,0-26.1,4.64-36.03,12.42,0,0-33.26-29.7-33.26-29.7M148.05,153.37s-33.26-29.7-33.26-29.7c-9.93,7.78-22.44,12.42-36.03,12.42s-26.1-4.64-36.03-12.42l-32.8,30.12M78.76,27.63c-27.61,0-50,22.39-50,50s22.39,50,50,50,50-22.39,50-50-22.39-50-50-50Z"/>
</g></svg>