<?xml version="1.0" encoding="UTF-8"?>
<svg id="bird-of-prey" class="ship" xmlns="http://www.w3.org/2000/svg" viewBox="0 0 60.85 67.99"><g class="ship-path"><path d="M55.38,61.02l-7.29-.49-1.17-9.49c7.9-1.39,14.06-9,13.93-17.01.22-7.86-6.09-15.76-14.11-17.05,0,0,1.18-9.55,1.18-9.55l6.8-.46c4.5-.4,3.76-7.5-.74-6.94,0,0-42.97,6.08-42.97,6.08-3.14.45-3.25.53-3.06,2.36.19,1.83.3,1.64,3.79,1.41,0,0,15.75-1.07,15.75-1.07l-17.68,12.46c-.32.08-4.38.45-4.47.8,0,0-3.32.43-3.32.43-.86.1-.69,1.45.17,1.33,0,0,3.03-.39,3.03-.39,1.26,2.81,3.34,5.33,3.28,8.06.05.58.61.97.67,1.52,0,0-8.51-.12-8.51-.12-.87-.03-.9,1.35-.02,1.35,0,0,8.65.13,8.65.13.07.51-.06.94-.33,1.4.04,3.22-1.71,6.07-3.46,9.31,0,0-3.07-.4-3.07-.4-.86-.13-1.04,1.24-.17,1.33,0,0,7.48.97,7.48.97.16.28,16.9,11.88,17.1,12.1l-14.46-.98c-3.49-.24-3.6-.43-3.79,1.41-.19,1.83-.08,1.92,3.06,2.36l42.97,6.08c4.48.55,5.26-6.52.75-6.94ZM57.2,26.14c6.25,9.86-2.4,24.71-14.12,23.69-3.07-.3-5.72-1.08-9.12-1.24.03.02.07.04.11.07l-26.7-3.71c.76-1.39,1.5-2.81,2.11-4.27.6.07,3.43.47,3.95.54h-.01c1.32.07,24.83,3.41,26.3,3.29h0c13.55-.04,13.89-20.23.32-20.71-8.05.94-22.63,3.13-30.79,4.19-.69-1.6-1.52-3.19-2.35-4.74,0,0,2.89-.4,2.89-.4,2.98-.39,20.21-2.55,23.59-2.97-.1.07-.2.13-.29.2,1.4-.6,3.34-.67,4.91-.79,0,0,7.52-.93,7.52-.93,4,.11,10.34,4.45,11.7,7.78ZM35.08,34.75c.87.03.9-1.35.02-1.35-.16-.32-24.13.41-23.2-1,2.35-.3,20.21-2,23.59-2.22,8.23-1.24,8.95,8.26,1.04,8.04-2.79,0-18.26-2.04-24.53-2.89.08-.3.13-.61.15-.92l22.93.34ZM30.49,8.61c2.15-.12,13.92-1.09,15.79-.79-.37,2.98-.74,5.95-1.1,8.93-3.91-.43-27.62,3.71-31.99,4.05,5.77-4.06,11.53-8.13,17.3-12.19ZM13.38,47.68c6.41.76,25.97,3.35,32.04,4.02,0,0,1.08,8.72,1.08,8.72l-16.64-1.13-16.48-11.61ZM25.39,17.94l.56-.14,16.55-2.37c.59-.08,1.05-.55,1.13-1.14-.1-1.25,1.67-5.49-.94-5.28,0,0-11.42,1.22-11.42,1.22-.22.02-.43.1-.61.23l-6.88,4.72c-.98.6-2.3,1.63-3.28,2.26-.43.29-3.15,1.85-1.81,1.5h0c.91-.12,1.97-.31,2.8-.49h0c.84-.07,2.29-.28,2.82-.37h0c.39-.04.59-.06.63-.07h0c.14-.02.29-.05.45-.07ZM18.79,18.81s0,0,0,0c0,0,0,0,0,0ZM42.82,54.07c-.08-.59-.54-1.05-1.13-1.14l-16.56-2.37c-.25-.07-.76-.18-1.01-.21h0s-.24-.03-.62-.07h0c-1.58-.21-3.88-.57-5.62-.86h0c-1.33-.34,1.37,1.21,1.81,1.5,2.19,1.53,7.87,5.41,10.16,6.98.18.13.39.2.61.23l11.42,1.22c2.57.2.89-4.02.94-5.28ZM17.98,49.55s0,0,0,0c0,0,0,0,0,0Z"/></g></svg>