<?xml version="1.0" encoding="UTF-8"?>
<svg id="borgCube" class="ship" xmlns="http://www.w3.org/2000/svg" viewBox="0 0 110.13 90.31"><g class="ship-path"><path d="M30.72,39.73v-2.08s8.31.54,8.31.54v5.54s-1.57.01-1.57.01c.52-4.05-2.98-2.78-5.58-3.1,0,0-1.17-.91-1.17-.91ZM35.81,53.08l-2.2-.15.16,35.56s2.11-.43,2.11-.43c-.12-.17-.02-34.78-.07-34.98ZM9.94,24.04v3.13s2.03-.18,2.03-.17c-.05-1.18-.38-3.46,1.41-3.46l9.34.14v-1.53s-11.88.07-11.88.07l-.93,1.66c.01.06.04.12.03.18ZM70.11,73.09v-5.66s.73-.2.73-.2v5.77s-.73.09-.73.09ZM67.75,47.6l-7.75.47.17-35.69,9.16,1.1v10.5s-.28,0-.28,0c-.98,0-1.74.97-1.47,1.92v12.25c-1.28.05-4.27-.71-4.29,1.39-.1.27-.07,4.92-.07,5.34,0,.94.87,1.64,1.76,1.65,0,0,2.92-.17,2.78-.03,0,0,0,1.09,0,1.09ZM47.32,78.93c-3.56-.35-2.89.75-2.93-2.96,3.66.28,2.98-.86,2.93,2.96ZM43.95,8.57s13.17-.42,13.17-.42l-.19,39.84-6.15-.6v-6.9c0-1.26-1.23-1.68-2.29-1.49,0,0,0-5.78,0-5.78-.08-1.82-2.43-1.88-3.79-1.85v-8.57c.04-1.23-1.5-1.99-2.45-1.22,0,0-5.06-.36-5.06-.36v-8.83s5.28-.22,5.28-.22c1.82-.05,1.48-2.36,1.49-3.59ZM.07,71.88l8.67.53c.97-.4,2.09.37,2.08,1.42l.06,11.99,19.83,2.66s-.17-37-.17-37c.03-.91.79-1.76,1.75-1.7l24.63,1.63v-.34s-7.84-.77-7.84-.77c-.9-.08-1.51-.93-1.37-1.81,0,0,0-6.44,0-6.44-1.47.21-2.3-.76-2.29-2.16v-5.43s-1.89-.03-1.89-.03c-.68.07-1.32-.37-1.55-.97-.66-.55-.25-7.98-.36-8.84l-6.17-.44c-.99-.06-1.68-1.09-1.34-2.02,0,0,0-10.38,0-10.38.13-1.03.33-2.34,1.63-2.39,0,0,5.14-.22,5.14-.22-.07-1.32-.1-3.49,1.69-3.61l14.56-.46.02-5.08L0,2.08l.07,69.8ZM13.05,60.68l-5.76-.08c-.76-.01-1.36-.63-1.35-1.39s.63-1.36,1.39-1.35l5.76.08c1.78,0,1.74,2.79-.04,2.74ZM9.39,38.37l8.26-.05c.35,0,.63.28.64.63,0,.35-.28.63-.63.64,0,0-8.26.05-8.26.05-.82.02-.83-1.27,0-1.26ZM17.01,55.16l-5.27.04c-.76,0-1.38-.6-1.38-1.36,0-.76.6-1.38,1.36-1.38l5.27-.04c1.78-.04,1.8,2.75.02,2.74ZM20.86,65.66v-7.32c0-.76.61-1.37,1.36-1.37.76,0,1.37.61,1.37,1.37v7.32c.03,1.78-2.76,1.78-2.74,0ZM27.6,73.83s-.13,3.72-.13,3.72c-.02,2.27-5.29,1.7-5.22-.36.13-1.39-.81-6.62,2.18-5.02h1.82c.87-.03,1.55.81,1.35,1.66ZM40.04,35.5c.85-.26,1.75.43,1.73,1.32v8.17c-.01.78-.68,1.45-1.46,1.47,0,0-4.15.03-4.15.03-1.07.02-1.45-1-1.44-1.91v-1.1s-2.68-.11-2.68-.11c-1.07.6-2.78-1.48-3.59-1.93-.45-.35-.62-.92-.48-1.44,0-.49.03-3.52-.13-3.92.05-.76.7-1.33,1.46-1.28l10.73.69ZM24.7,9.96c-.03-1.78,2.77-1.78,2.74,0v4.78s1.12.87,1.12.87c1.42,1.07-.3,3.27-1.68,2.16-.32-.3-1.45-.98-1.59-1.43-1.12-.49-.39-5.46-.59-6.38ZM25.46,22.11c-.15,1.23.65,4.35-1.41,4.31l-9.36-.14s.19,5.87.19,5.87c0,1.89-2.63,1.74-2.87.05l-.21-3.93s-2.23.19-2.23.19c-.45.02-.84-.45-.89-.87.06-.6-.14-3.88.13-4.36.38-.49.99-2.35,1.81-2.3l12.91-.08c.94-.41,1.97.19,1.93,1.25ZM8.41,4.88l6.96-.47c.76-.05,1.41.52,1.46,1.27.05.76-.52,1.41-1.27,1.46l-6.96.47c-1.77.15-1.96-2.64-.19-2.73ZM7.24,10.24s3.57-.02,3.57-.02c1.78-.04,1.79,2.76.02,2.74l-3.57.02c-1.78.04-1.79-2.76-.02-2.74ZM57.87,54.66l.02,35.39,21.03-4.06s0-32.47,0-32.47c-.29.04-20.74,1.12-21.04,1.14ZM72.22,64c.76,0,1.37.61,1.37,1.37,0,0,0,8.78,0,8.79-.02,2.05-3.58,1.47-4.85,1.87-.76,0-1.37-.61-1.37-1.37,0,0,0-8.15,0-8.16.14-1.91,3.5-1.94,4.85-2.5ZM74.82,84.41s-9.19,1.51-9.19,1.51c-.66.1-1.34.45-1.93-.14-.55-.72-3.15-2.25-2.72-3.4.07-1.27-1-4.86,1.14-4.94,1.25-.07,1.54,1.25,1.46,2.24.03.02.08.03.11.06l1.69,1.36c.15-.08.31-.15.49-.17,0,0,8.55-1.24,8.55-1.24.98-.17,1.82.84,1.5,1.77.04,1.02.33,2.78-1.1,2.98ZM81.71,53.37l.11,33.31-1.51-.39c-.42.06,0-32.74-.15-32.84,0,0,1.54-.09,1.54-.09ZM7.76,75.42l.02,3.38-3.78.46v-3.91c0-.05-.01-.1-.02-.16l3.79.23ZM37.07,53.17c-.02.1,0,5.84.01,12.65.03-.91.12-1.8.04-2.22-.04-1.19,1.52-1.82,2.33-.98,0,0,1.43-.01,1.43-.01.87-.4,1.93.29,1.91,1.26v5.34c-.05,1.85-2.53,1.46-3.57.77,0,0-1.3-1.35-1.3-1.35-.6-.18-.79-.94-.84-1.83.02,9.75.04,21.18-.04,21.3l17.77,2.22-.02-35.97s-17.73-1.17-17.73-1.17ZM46.47,62.09c.76,0,1.37.61,1.37,1.37-.27,1.23.91,6.26-1.37,6.13-.76,0-1.37-.61-1.37-1.37.27-1.23-.91-6.26,1.37-6.13ZM41.65,79.97v-5.52c0-.76.61-1.37,1.37-1.37.1.14,4.93.26,5.23.27.88-.42,1.97.3,1.92,1.28-.35,1.41.85,7.22-1.72,7.1-1.31-.38-6.86.57-6.8-1.77ZM51.7,89.12c-1.15-.38-5.22.13-4.86-2.02.21-2.18,4-.62,5.22-.7,1.77.21,1.4,2.98-.36,2.72ZM84.77,51.83l.12,34.95,25.14-6.18.1-74.4L60.23.36l-.04,8.94,10.94,1.32c.84.1,1.44.86,1.34,1.71-.02.19-.11.35-.07.54v12.27c.31,1.04-.68,2.14-1.75,1.95,0,0,0,12.64,0,12.64,0,2.18-3.05,1.41-4.37,1.47,0,0,0,2.24,0,2.24,1.58-.05,5.37-.66,4.24,2.19.5.56.24,2.51.29,3.22-.01.95-.89,1.64-1.77,1.77l-9.07.56v.35s22.98-1.27,22.98-1.27c.91-.01,1.82.61,1.82,1.59ZM85.6,37.94c-.02-.42-.05-1.82-.03-2.19.02-.35.31-.61.66-.6,0,0,10.08.52,10.08.52.59,0,.81.84.32,1.14.02.3.32,1.79.18,2.05-.02.35-.31.61-.66.6l-10.08-.52c-.49,0-.78-.62-.47-.99ZM89.3,64.34c.76,0,1.37.61,1.37,1.37-.28,1.22.92,6.17-1.37,6.06-.76,0-1.37-.61-1.37-1.37.28-1.22-.92-6.17,1.37-6.06ZM94.58,76l-5.07.96c-.74.14-1.46-.35-1.6-1.09s.35-1.46,1.09-1.6l5.07-.96c1.74-.36,2.26,2.39.51,2.69ZM101.74,64.38s-5.25.55-5.25.55c-1.77.21-2.05-2.57-.28-2.73l2.86-.3c-1.37-.53-.88-2.74.61-2.62,1.11.09,3.45-.22,3.33,1.53-.02.46-.27.86-.63,1.09,1.03.66.6,2.4-.64,2.48ZM106.91,11.43s0,4.69,0,4.69c.03,1.78-2.77,1.78-2.74,0v-4.69c-.03-1.78,2.77-1.78,2.74,0ZM100.16,44.34c.12-3.36-.6-4.43,3.46-4.19.76,0,1.37.61,1.37,1.37-.2.94.56,5.01-.67,5.47.1.04-2.33,2.91-2.4,3.01-.48.58-1.35.67-1.93.18-.44-.31-.95-.63-.97-1.28.03-.76-.52-2.77.2-3.34.06-.46.64-.92.94-1.23ZM91.93,19.87c-.08-.53.48-1.24.74-1.67-.05-.36.29-.68.65-.66.43.09,3.94,0,4.22.26.21.26,1.59,1.15,1.55,1.55.04.08.07.17.07.27v6.97c0,.35-.28.63-.63.63-.08.27-.33.46-.62.45l-1.4-.06c-.49.16-1.04-.44-.78-.92,0,0,0-5,0-5-.28-.05-3.13.15-3.28-.13-.72-.1-.45-1.19-.5-1.67ZM78.41,12.7c.28-3.14,5.6-.18,7.16-.03,1.74.6.81,3.23.75,4.57-.11.96-1.24,1.5-2.06,1-.73-.31-5-.66-5.3-1.59-.94-.52-.41-3.11-.55-3.95ZM78.39,26.39c.18-.95,1.01-2.13,2.12-1.82.57.26,4.65,1,4.92,1.63,1.06.44.63,2.34.71,3.2,1.03.14,2.57.51,2.25,1.89-.16.74-.89,1.21-1.63,1.05-.15-.08-7.97-1.6-7.74-1.83-1.3-.48-.51-3.15-.63-4.12ZM72.65,33.7c.08-.75.76-1.3,1.51-1.21,1.2.4,6.36-.21,5.98,2.04-.08.75-.76,1.3-1.51,1.21-1.2-.4-6.36.21-5.98-2.04ZM81.15,43.53s-4.02.06-4.02.06c-1.78.05-1.82-2.74-.04-2.74l4.02-.06c1.78-.05,1.82,2.74.04,2.74ZM93.17,19.76l.6-.95c.06,0,3.08.13,3.14.11,0,0,.97.83.97.83v6.63s-.91-.04-.91-.04v-5.25c-.04-1.24-3.07-.49-3.78-.67.01-.08,0-.6-.02-.66Z"/></g></svg>