<?xml version="1.0" encoding="UTF-8"?>
<svg id="capitalShip" class="ship" xmlns="http://www.w3.org/2000/svg" viewBox="0 0 105.04 133.49"><<g class="ship-path"><path d="M20.52,53.91c.74-.29.79-1.42.07-1.76l-4.38-2.28h0c12.83-2.9,14.85-9.03,23.84-18.64C47.37,23.58,60.31,11.88,73.34.12c1.62-.21,4.31-.12,5.58.04.04,0,.09.09.02.12-3.49,6.55-2.28,16.13-4.68,23.64-1.59,6.76-6.49,12.33-9.39,18.57-.26.65,7.54,3.28,7.91,3.56.1.02.19,2.89.23,2.94.02.19-10.68-.13-10.74-.06-.57-.02-1.06.52-.98,1.09-.06.07.6,3.95.38,3.93-15.36.24-30.98,1.69-48.78,3.33-.39-.2,7.65-3.28,7.63-3.39ZM94.98,77.07h0c-2.17.32-5.1.15-7.03.36h0c-27.13,1.87-52.77.14-81.15-3.14h.01s-.25-.23-.27-.25h0c-1.61-1.72-5.02-4.87-6.56-6.63,0,0,7.57-7.61,7.57-7.61,17.37-1.78,34.88-3.28,49.16-3.78,10.44-.38,21.53.07,31.09.63,7.83-.74,16.99,1.13,17.21,10.31,0,5.38-4.42,9.83-10.05,10.1ZM77.5,73.28c-.07,0-.14,0-.21.02,0,0-6.38,1.38-6.38,1.38h0c-17.83,1.15-33.36-.51-52.85-2.41-.53-.05-1.01.34-1.07.88-.05.54.36,1.03.9,1.07,11.34,1.1,22.72,2.21,31.59,2.61,9.79.23,19.12.75,28.22-1.62,1.12-.21.92-1.96-.21-1.93ZM78.16,59.11c-.21-.03-6.38-1.41-6.6-1.41h0c-17.88-1.17-33.68.5-53.18,2.41-1.31.05-1.13,2.09.14,1.95,19.51-1.9,35.04-3.56,52.88-2.41h0c.07.02,6.29,1.36,6.36,1.38.51.12,1.05-.22,1.16-.75.11-.53-.22-1.05-.75-1.16ZM77.32,132.72c-3.27-6.48-2.1-15.85-4.47-23.18-1.59-6.76-6.49-12.33-9.39-18.57-.25-.67,7.55-3.27,7.91-3.56.11-.02.19-2.85.23-2.9,0-.19-10.57.49-10.66.43-1.7.08-.72-3.68-.93-4.55-14.7-.69-30.22-1.68-46.6-3.31-.08.1,5.69,2.45,5.7,2.49.75.29.78,1.42.07,1.76,0,0-4.4,2.29-4.4,2.29,4.98,1.66,10.07,2.84,13.46,6.64h0c.94.97,1.88,2.16,2.98,3.49h0c10.8,13.31,23.71,23.98,40.76,39.64,1.04-.08,6.57.6,5.35-.66Z"/></g></svg>