<?xml version="1.0" encoding="UTF-8"?>
<svg id="mars-shuttle" class="ship" xmlns="http://www.w3.org/2000/svg" viewBox="0 0 71.29 81.14"><g class="ship-path"><path d="M.1,0s-.03,0-.04.02c0,.02,0,.04,0,.05l19.05,30.65c.09.14.05.32-.09.41-.05.03-.11.05-.17.05-.09,0-.19-.04-.24-.13l-9.61-13.33s-.02-.02-.04-.02l-2.66-.2s0,0,0,0c-.02,0-.04.02-.05.04l-4.25,23.05h0s-.01.05-.02.07c0,.02,0,.03,0,.05h0l4.22,22.87s.02.04.05.04c0,0,0,0,0,0l2.66-.2s.03,0,.04-.02l9.61-13.33c.06-.08.15-.13.25-.13.06,0,.12.02.17.05.13.09.17.27.09.41L0,81.07s0,.03,0,.05c0,.02.02.02.04.02h0s0,0,0,0,0,0,0,0h0l2.25-.11s.02,0,.03-.01l42.32-37.14h0c.05-.05.12-.07.2-.07l26.2-.13s.04-.02.05-.04c0-.02,0-.04-.02-.05l-3.56-2.01s-.01,0-.02,0l-19.41-.9c-.14,0-.25-.11-.28-.24h0s0-.01,0-.02h0s0,0,0,0v-.02s-.03-.08-.03-.12c0-.17.13-.3.3-.3l19.57-.09s.02,0,.03,0l3.61-2.32s.03-.03.02-.05c0-.02-.02-.04-.05-.04l-26.34-.13c-.07,0-.14-.03-.2-.07L2.39.12s-.02-.01-.03-.01L.1,0h0Z"/></g></svg>