<?xml version="1.0" encoding="UTF-8"?>
<svg id="enterprise" class="projection" xmlns="http://www.w3.org/2000/svg" viewBox="0 0 391.12 156.74"><g><path d="M80.49,32.69c-62.7,1.88-62.68,89.49,0,91.36,62.7-1.89,62.68-89.48,0-91.36ZM80.49,115.17c-50.96-1.53-50.95-72.07,0-73.6,50.96,1.54,50.95,72.07,0,73.6ZM80.49,63.14c-20.92.63-20.91,29.83,0,30.45,20.91-.63,20.91-29.83,0-30.45ZM80.49,91.23c-17.79-.54-17.79-25.19,0-25.72,17.79.54,17.79,25.19,0,25.72ZM379.45,129.1c-.46-.79-122.29,1.51-121.67-.82,0,0-15.71-28.78-15.71-28.78,0,0,33.57,0,33.57,0,27.93-.86,27.93-41.41,0-42.26,0,0-35.54,0-35.54,0l16.51-24.4c1.09-1.61,1.72-3.4,1.93-5.21h119.99c16.73-.46,16.85-23.06,0-23.56,0,0-180.74,0-180.74,0-16.75.48-16.83,23.06,0,23.57,0,0,33.89,0,33.89,0l-20.03,29.6s-52.44.04-52.94.08C149.13,24.02,117.44,0,80.49,0c-107.27,3.21-107.36,153.5,0,156.74,36.95,0,68.64-24.03,78.21-57.32.51.04,56.52.08,56.52.08l16.16,29.6h-34.51c-15.57.47-15.57,23.09,0,23.57,0,0,182.57,0,182.57,0,15.46-.45,15.67-23.05,0-23.57ZM80.49,133.17c-76.19-2.3-76.17-107.32,0-109.61,76.19,2.29,76.17,107.32,0,109.61Z"/></g>
</svg>