<?xml version="1.0" encoding="UTF-8"?>
<svg id="lasirena" class="ship projection" xmlns="http://www.w3.org/2000/svg" viewBox="0 0 134.72 142.69"><g><path d="M133.71,119.77c-.08,4.52-3.81,8.12-8.34,8.04l-27.01-.49c.7,10.01.43,14.29-2.04,15.17h0c-.37.13-.82.2-1.34.2-.34,0-.7-.03-1.1-.08-1.59-.2-3.56-.79-5.82-1.46h0s-.03,0-.03,0c-2.82-.84-6.05-1.81-9.43-2.24-1.54-.2-3.1-.29-4.68-.29-6.24,0-12.83,1.37-19.35,2.77h-.01s-.11,0-.11,0l-.06-.04-.02-.04h0c-1.31-2.76-2.42-5.32-2.11-7.74h0c.29-2.24,1.8-4.44,3.6-6.75l.11.04-.06-.06,22.67.16-69.72-1.26c-4.52-.08-8.12-3.81-8.04-8.34s3.81-8.12,8.34-8.04l61.5,1.11-4.85-21.22.07-.07,15.67,2.09-16.34-2.28c-1.43-.2-2.42-1.52-2.22-2.94.02-.12.05-.23.08-.35h-.05s-.02,0-.02,0l-20.7-5.77-4.61-.09c-4.52-.09-8.12-3.82-8.03-8.35.09-4.52,3.82-8.12,8.35-8.03l4.53.09v-.06s23.04-6.43,23.04-6.43h.02s.08,0,.08,0c-.06-.17-.1-.34-.13-.52-.19-1.43.81-2.74,2.24-2.93l.6-.08-.02-.02,4.88-21.37-65.02.47C3.73,32.61.03,28.97,0,24.44c-.03-4.52,3.61-8.22,8.13-8.25l50.28-.36c-1.78-2.3-3.28-4.48-3.57-6.71h0c-.31-2.42.8-4.98,2.11-7.74h0s.02-.04.02-.04l.06-.04h.11s.01,0,.01,0c6.52,1.4,13.11,2.77,19.35,2.77,1.58,0,3.14-.09,4.68-.29,3.38-.43,6.62-1.4,9.44-2.24h.03c2.26-.68,4.22-1.26,5.81-1.47.39-.05.76-.08,1.1-.08.53,0,.97.07,1.34.2h0s0,0,0,0c2.48.88,2.74,5.18,2.04,15.26h-.06s0,.04,0,.06l25.6-.19c4.52-.03,8.22,3.61,8.25,8.13s-3.61,8.22-8.13,8.25l-27.03.2h0c-.53,6-.98,10.81-1.62,17.63l29.42-3.93c1.43-.19,2.74.81,2.93,2.24.19,1.43-.81,2.74-2.24,2.93l-30.63,4.09.02.02h0s-.06,0-.06,0c-.06.71-.13,1.41-.2,2.13h.06c-.3,3.19-.02.18-.55,5.85h0s-.16,1.66-.16,1.66l2.69.05c4.52.09,8.12,3.82,8.03,8.35-.09,4.52-3.82,8.12-8.35,8.03l-4.69-.09c.4,4.19.17,1.81.45,4.78h-.06c.07.71.14,1.42.2,2.13h.06s-.03.04-.03.04l33.39,4.67c1.43.2,2.42,1.52,2.22,2.94-.2,1.42-1.51,2.42-2.94,2.22l-32.13-4.49c.64,6.81,1.08,11.62,1.62,17.61l-.06.07h-.11s-6.43-.04-6.43-.04l35.28.64c4.52.08,8.12,3.81,8.04,8.34Z"/></g></svg>