<?xml version="1.0" encoding="UTF-8"?>
<svg id="titan" class="projection" xmlns="http://www.w3.org/2000/svg" viewBox="0 0 332.32 133.17"><g><path d="M68.39,27.77c-53.27,1.6-53.26,76.03,0,77.63,53.27-1.6,53.26-76.03,0-77.63ZM68.39,97.85c-43.3-1.3-43.29-61.23,0-62.53,43.3,1.31,43.29,61.23,0,62.53ZM68.39,53.65c-17.77.54-17.77,25.34,0,25.87,17.77-.54,17.76-25.34,0-25.87ZM68.39,77.51c-15.12-.45-15.11-21.4,0-21.86,15.12.46,15.11,21.4,0,21.86ZM322.4,109.69c-.39-.67-103.91,1.28-103.38-.7,0,0-13.35-24.46-13.35-24.46,0,0,28.52,0,28.52,0,23.73-.73,23.73-35.18,0-35.91,0,0-30.2,0-30.2,0l14.03-20.73c.93-1.37,1.46-2.89,1.64-4.42h101.95c14.21-.39,14.31-19.59,0-20.02,0,0-153.56,0-153.56,0-14.23.41-14.3,19.59,0,20.02,0,0,28.79,0,28.79,0l-17.02,25.15s-44.55.03-44.98.06C126.71,20.41,99.78,0,68.39,0c-91.14,2.73-91.22,130.42,0,133.17,31.39,0,58.32-20.41,66.45-48.7.43.03,48.02.07,48.02.07l13.73,25.15h-29.32c-13.23.4-13.23,19.62,0,20.02,0,0,155.12,0,155.12,0,13.14-.38,13.32-19.59,0-20.02ZM68.39,113.15c-64.73-1.95-64.72-91.18,0-93.13,64.73,1.95,64.72,91.18,0,93.13Z"/></g></svg>