<?xml version="1.0" encoding="UTF-8"?>
<svg id="wallenberg" class="ship projection" xmlns="http://www.w3.org/2000/svg" viewBox="0 0 311.73 175.44"><defs><style>.cls-1{fill:#03a8f4;}.cls-2{fill:#0d1b70;}</style></defs><g id="Layer_1-2"><path class="cls-2" d="M181.22,0l-52.98,62.04h0c-.17.21-.41.32-.68.32l-115.33.95c-.1,0-.18.08-.18.18h.11C6,70.91.29,78.02.01,85.8c-.28,7.84,4.97,16.54,10.56,25.6l.16.09h.17s117.13,1.83,117.13,1.83c.26,0,.5.12.67.31h0s53.93,61.82,53.93,61.82l.31-.06,11.96-33.6v-.06s.01,0,.01,0h.02c.14-.31.44-.53.79-.54.02,0,.03,0,.05,0,.35,0,.67.2.82.52h0s4.3,9.01,4.3,9.01l.18.1,110.51-9.02.17-.18-.04-4.02-.16-.18-83.92-9.78h0c-.4-.05-.72-.35-.79-.74h0s-2.4-13.18-2.4-13.18c-.04-.24,0-.48.15-.69.14-.2.35-.34.59-.38l73.62-12.81.15-.15,1.89-10.22v-.07l-2.21-11.55-.15-.14-73.15-11.12h0c-.5-.08-.84-.54-.77-1.03h0s1.95-13.4,1.95-13.4v-.03h0s0,0,0,0c.07-.4.39-.7.79-.75l83.61-9.87.16-.16.36-4.53-.16-.19-109.99-10.19-.18.11-4.18,9.96h0c-.14.34-.48.56-.84.56h-.02c-.37,0-.71-.24-.84-.59h0S181.53.05,181.53.05l-.31-.05Z"/><path class="cls-1" d="M11.11,71.69l-.1.05c-3.16,4.79-6.01,9.33-5.98,14.55.03,5.24,2.97,11.31,6.17,17.66l.23-.05-.08.11,21.65-6.52h.15s.11-.16.11-.16l-.02-.06h0s-.11,0-.11,0l.02-.02h.09c-1.15-3.22-2.25-6.63-2.34-10.48-.08-3.86.86-8.22,1.86-12.43h.08s.01-.24.01-.24l-21.55-2.41h-.01s-.17,0-.17,0Z"/><path class="cls-1" d="M192.07,48.63h-.04s-23.41,8.33-23.41,8.33l-.08.15,4.35,14.73h.25c.08.36,0,.73-.22,1.01h-.33s-.08.06-.12.09h0s-11.1,6.88-11.1,6.88l.06.22h.12c2.61,2.53,5.23,5.37,5.42,8.48h.12c.18,3.15-2.1,6.32-4.36,9.15h-.15s.09.2.09.2h.15s6.79,2.3,6.79,2.3h0c.39.13.65.49.66.9h0s.36,17.92.36,17.92l.08.11,25.21,8.63.16-.11h0s0,0,0,0c2.25-13.5,4.38-26.88,3.76-39.98-.02-.37-.07-1.29-.09-1.66l-.12-.11h-.06s-2.33-16.58-2.33-16.58h.03s.12-.15.12-.15v-.03s-.17,0-.17,0l.05-.07h.1c-1.39-6.81-3.17-13.49-5.01-20.31h0s-.12-.12-.12-.12h-.17Z"/><path class="cls-1" d="M244.7,102.31h0s-.01.01-.01.01h0s.01-.01.01-.01ZM244.83,102.38l.03.06h-.03s-.03-.06-.03-.06h.02ZM245.36,75.91l-.1.19h.15c2.54,3.79,4.89,7.88,4.82,12.33h-.12c-.07,4.52-2.67,9.3-5.44,13.89l.02.03-.04.04h0s.06,0,.06,0l.06.11-.05-.12h.05s.06.06.06.06h0s-.06.06-.06.06h0s0,0,0,0h.02s49.85-6.79,49.85-6.79h.16s.11-.16.11-.16l-.02-.08h0s-.1,0-.1,0h0s.09,0,.09,0c-.67-2.36-1.31-4.84-1.51-7.12-.21-2.28,0-4.4.28-6.43h.07s.01-.24.01-.24l-48.2-5.77h-.01s-.17,0-.17,0Z"/><path class="cls-1" d="M215.98,84.13l7.91-48.32-.11-.14-11.91-.86-.12.07-13.02,30.8v.06s.42,3.08.42,3.08l.12.1h.07c1.07,5.27,1.88,10.5,2.29,15.84l.12.11h0c.07,2.79.24,12.79-.75,18.54h0s10.84,30.6,10.84,30.6l.12.08h0s11.91-.86,11.91-.86l.11-.14-8.01-48.96Z"/></g></svg>